<?xml version="1.0" encoding="UTF-8" standalone="no"?>
<!-- Created with Inkscape (http://www.inkscape.org/) -->

<svg
   xmlns:dc="http://purl.org/dc/elements/1.1/"
   xmlns:cc="http://creativecommons.org/ns#"
   xmlns:rdf="http://www.w3.org/1999/02/22-rdf-syntax-ns#"
   xmlns:svg="http://www.w3.org/2000/svg"
   xmlns="http://www.w3.org/2000/svg"
   xmlns:sodipodi="http://sodipodi.sourceforge.net/DTD/sodipodi-0.dtd"
   xmlns:inkscape="http://www.inkscape.org/namespaces/inkscape"
   width="210mm"
   height="297mm"
   viewBox="0 0 744.09448819 1052.3622047"
   id="svg2"
   version="1.1"
   inkscape:version="0.91 r13725"
   sodipodi:docname="logo.svg">
  <defs
     id="defs4">
    <inkscape:path-effect
       effect="spiro"
       id="path-effect4291"
       is_visible="true" />
  </defs>
  <sodipodi:namedview
     id="base"
     pagecolor="#ffffff"
     bordercolor="#666666"
     borderopacity="1.0"
     inkscape:pageopacity="0.0"
     inkscape:pageshadow="2"
     inkscape:zoom="1.4"
     inkscape:cx="234.81019"
     inkscape:cy="582.80456"
     inkscape:document-units="px"
     inkscape:current-layer="layer1"
     showgrid="false"
     inkscape:window-width="1920"
     inkscape:window-height="1017"
     inkscape:window-x="-8"
     inkscape:window-y="-8"
     inkscape:window-maximized="1" />
  <metadata
     id="metadata7">
    <rdf:RDF>
      <cc:Work
         rdf:about="">
        <dc:format>image/svg+xml</dc:format>
        <dc:type
           rdf:resource="http://purl.org/dc/dcmitype/StillImage" />
        <dc:title></dc:title>
      </cc:Work>
    </rdf:RDF>
  </metadata>
  <g
     inkscape:label="Ebene 1"
     inkscape:groupmode="layer"
     id="layer1">
    <flowRoot
       xml:space="preserve"
       id="flowRoot4136"
       style="font-style:normal;font-variant:normal;font-weight:normal;font-stretch:normal;font-size:40px;line-height:125%;font-family:'Comic Sans MS';-inkscape-font-specification:'Comic Sans MS';letter-spacing:0px;word-spacing:0px;fill:#000000;fill-opacity:1;stroke:none;stroke-width:1px;stroke-linecap:butt;stroke-linejoin:miter;stroke-opacity:1"
       transform="translate(74.246212,-62.124382)"><flowRegion
         id="flowRegion4138"><rect
           id="rect4140"
           width="671.42859"
           height="194.28572"
           x="128.57143"
           y="335.21936"
           style="font-style:normal;font-variant:normal;font-weight:normal;font-stretch:normal;font-family:'Comic Sans MS';-inkscape-font-specification:'Comic Sans MS'" /></flowRegion><flowPara
         id="flowPara4142">ata ninjas</flowPara></flowRoot>    <path
       style="color:#000000;clip-rule:nonzero;display:inline;overflow:visible;visibility:visible;opacity:1;isolation:auto;mix-blend-mode:normal;color-interpolation:sRGB;color-interpolation-filters:linearRGB;solid-color:#000000;solid-opacity:1;fill:#000000;fill-opacity:1;fill-rule:nonzero;stroke:none;stroke-width:3;stroke-linecap:round;stroke-linejoin:round;stroke-miterlimit:4;stroke-dasharray:none;stroke-dashoffset:0;stroke-opacity:1;color-rendering:auto;image-rendering:auto;shape-rendering:auto;text-rendering:auto;enable-background:accumulate"
       d="m 84.852816,325.05238 c 3.700809,-4.05792 111.705674,-3.4903 113.642154,0 3.08981,5.56908 -99.989949,76.82784 -105.879318,66.67987 C 83.24518,369.82593 81.152007,329.1103 84.852816,325.05238 Z"
       id="rect4155"
       inkscape:connector-curvature="0"
       sodipodi:nodetypes="zscz" />
    <flowRoot
       xml:space="preserve"
       id="flowRoot4136-8"
       style="font-style:normal;font-variant:normal;font-weight:normal;font-stretch:normal;font-size:40px;line-height:125%;font-family:'Comic Sans MS';-inkscape-font-specification:'Comic Sans MS';letter-spacing:0px;word-spacing:0px;fill:#000000;fill-opacity:1;stroke:none;stroke-width:1px;stroke-linecap:butt;stroke-linejoin:miter;stroke-opacity:1"
       transform="translate(-22.244078,-56.694695)"><flowRegion
         id="flowRegion4138-1"><rect
           id="rect4140-5"
           width="671.42859"
           height="194.28572"
           x="128.57143"
           y="335.21936"
           style="font-style:normal;font-variant:normal;font-weight:normal;font-stretch:normal;font-family:'Comic Sans MS';-inkscape-font-specification:'Comic Sans MS'" /></flowRegion><flowPara
         id="flowPara4142-2">D D</flowPara></flowRoot>    <path
       style="color:#000000;clip-rule:nonzero;display:inline;overflow:visible;visibility:visible;opacity:1;isolation:auto;mix-blend-mode:normal;color-interpolation:sRGB;color-interpolation-filters:linearRGB;solid-color:#000000;solid-opacity:1;fill:#000000;fill-opacity:1;fill-rule:nonzero;stroke:none;stroke-width:3;stroke-linecap:round;stroke-linejoin:round;stroke-miterlimit:4;stroke-dasharray:none;stroke-dashoffset:0;stroke-opacity:1;color-rendering:auto;image-rendering:auto;shape-rendering:auto;text-rendering:auto;enable-background:accumulate"
       d="m 77.85714,269.07649 c 37.77919,-22.0649 80.07795,-23.49348 117.85714,0 7.88537,4.90362 0,15.85715 0,15.85715 l -117.85714,0 c 0,0 -8.018305,-11.17407 0,-15.85715 z"
       id="rect4182"
       inkscape:connector-curvature="0"
       sodipodi:nodetypes="ssccs" />
    <g
       transform="translate(69.7906,123.89641)"
       style="font-style:normal;font-variant:normal;font-weight:normal;font-stretch:normal;font-size:40px;line-height:125%;font-family:'Comic Sans MS';-inkscape-font-specification:'Comic Sans MS';letter-spacing:0px;word-spacing:0px;fill:#000000;fill-opacity:1;stroke:none;stroke-width:1px;stroke-linecap:butt;stroke-linejoin:miter;stroke-opacity:1"
       id="flowRoot4136-6"
       inkscape:export-xdpi="150"
       inkscape:export-ydpi="150">
      <path
         d="m 146.54102,376.04881 q -0.3711,0 -1.34766,-0.85938 -0.87891,-0.80078 -1.30859,-1.42578 -1.875,1.01563 -3.30079,1.52344 -1.42578,0.52734 -2.38281,0.52734 -4.57031,0 -6.66015,-2.57812 -1.97266,-2.42188 -1.97266,-7.42188 0,-4.72656 3.24219,-8.08593 3.26172,-3.35938 7.77343,-3.35938 1.69922,0 3.8086,0.87891 2.65625,1.09375 2.65625,2.63672 0,0.52734 -0.39063,0.9375 -0.19531,0.74218 -0.3125,2.4414 -0.0976,1.69922 -0.11718,4.35547 -0.0195,2.42188 0.33203,3.82813 0.19531,0.85937 1.23047,3.4375 0.13671,0.35156 0.44921,1.03515 l 0.11719,0.33203 q 0,0.78125 -0.54687,1.28907 -0.54688,0.50781 -1.26953,0.50781 z m -4.0625,-13.57422 q 0,-0.83984 0.0976,-1.81641 0.11719,-0.99609 0.33203,-2.10937 -0.72265,-0.3711 -1.25,-0.54688 -0.50781,-0.17578 -0.82031,-0.17578 -3.02734,0 -5.23437,2.48047 -2.1875,2.46094 -2.1875,5.68359 0,3.20313 1.13281,4.80469 1.13281,1.60156 3.39844,1.60156 1.875,0 3.18359,-0.68359 0.70312,-0.37109 1.97266,-1.48437 -0.625,-5.17579 -0.625,-7.75391 z"
         id="path4228"
         inkscape:connector-curvature="0" />
      <path
         d="m 164.82227,358.11912 q -0.41016,0 -0.97657,-0.0391 -0.54687,-0.0391 -0.95703,-0.0391 -0.44922,0 -2.65625,0.29296 l 0.3711,11.54297 0.0195,0.85938 0.0195,0.99609 q 0.0781,4.27735 -2.05078,4.27735 -0.78125,0 -1.36719,-0.50782 -0.56641,-0.50781 -0.56641,-1.26953 0,-0.74219 0.0586,-2.22656 0.0586,-1.48438 0.0586,-2.22656 l -0.39062,-11.40625 q -1.42579,-0.0586 -4.33594,-0.33203 -1.73828,-0.23438 -1.73828,-1.9336 0,-0.85937 0.52734,-1.42578 0.52734,-0.56641 1.34766,-0.56641 l 4.10156,0.33204 q 0,-0.9961 -0.0977,-2.65625 -0.0781,-1.67969 -0.0781,-2.42188 0,-0.82031 0.5664,-1.34766 0.56641,-0.54687 1.38672,-0.54687 1.75782,0 2.05078,2.87109 0.0586,0.72266 0.0586,1.73828 l -0.0391,1.13282 -0.0195,1.21093 q 2.42188,-0.3125 2.77344,-0.3125 2.03125,0 2.65625,0.19532 1.19141,0.39062 1.19141,1.83593 0,0.85938 -0.54688,1.42579 -0.52734,0.54687 -1.36718,0.54687 z"
         id="path4230"
         inkscape:connector-curvature="0" />
      <path
         d="m 185.83789,376.04881 q -0.37109,0 -1.34766,-0.85938 -0.8789,-0.80078 -1.30859,-1.42578 -1.875,1.01563 -3.30078,1.52344 -1.42578,0.52734 -2.38281,0.52734 -4.57032,0 -6.66016,-2.57812 -1.97266,-2.42188 -1.97266,-7.42188 0,-4.72656 3.24219,-8.08593 3.26172,-3.35938 7.77344,-3.35938 1.69922,0 3.80859,0.87891 2.65625,1.09375 2.65625,2.63672 0,0.52734 -0.39062,0.9375 -0.19531,0.74218 -0.3125,2.4414 -0.0977,1.69922 -0.11719,4.35547 -0.0195,2.42188 0.33203,3.82813 0.19531,0.85937 1.23047,3.4375 0.13672,0.35156 0.44922,1.03515 l 0.11719,0.33203 q 0,0.78125 -0.54688,1.28907 -0.54687,0.50781 -1.26953,0.50781 z m -4.0625,-13.57422 q 0,-0.83984 0.0977,-1.81641 0.11718,-0.99609 0.33203,-2.10937 -0.72266,-0.3711 -1.25,-0.54688 -0.50781,-0.17578 -0.82031,-0.17578 -3.02735,0 -5.23438,2.48047 -2.1875,2.46094 -2.1875,5.68359 0,3.20313 1.13281,4.80469 1.13282,1.60156 3.39844,1.60156 1.875,0 3.18359,-0.68359 0.70313,-0.37109 1.97266,-1.48437 -0.625,-5.17579 -0.625,-7.75391 z"
         id="path4232"
         inkscape:connector-curvature="0" />
      <path
         d="m 217.98633,376.14646 q -1.67969,0 -1.89453,-1.83593 l -0.54688,-4.27735 q -0.27344,-2.28515 -0.27344,-4.27734 0,-0.54688 0.0586,-1.85547 0.0781,-1.30859 0.0781,-1.85547 0,-4.21875 -1.5625,-4.21875 -2.1875,0 -4.17968,2.59766 -1.79688,2.36328 -2.8125,5.97656 -0.0391,0.76172 -0.17579,1.91406 -0.11718,0.97657 -0.11718,1.89453 0,0.58594 0.11718,1.75782 0.11719,1.17187 0.11719,1.75781 0,0.87891 -0.54687,1.42578 -0.52735,0.54688 -1.36719,0.54688 -0.85938,0 -1.38672,-0.54688 -0.52734,-0.54687 -0.52734,-1.42578 0,-0.58594 -0.13672,-1.75781 -0.11719,-1.17188 -0.11719,-1.75782 0,-2.01171 0.27344,-5.5664 0.29297,-3.57422 0.29297,-5.58594 0,-0.625 -0.0781,-1.85547 -0.0586,-1.23047 -0.0586,-1.85547 0,-0.83984 0.54687,-1.36718 0.56641,-0.54688 1.38672,-0.54688 1.79688,0 1.97266,2.53906 l 0.0586,2.28516 q 3.28125,-4.375 6.73828,-4.375 3.125,0 4.35547,2.75391 0.83985,1.83593 0.91797,5.42968 l 0,1.97266 -0.0195,1.81641 q 0,1.62109 0.41016,4.19921 0.42968,2.5586 0.42968,4.16016 0,0.85938 -0.5664,1.38672 -0.54688,0.54687 -1.38672,0.54687 z"
         id="path4234"
         inkscape:connector-curvature="0" />
      <path
         d="m 227.67383,350.03318 q -0.9375,0 -1.6211,-0.66406 -0.68359,-0.66406 -0.68359,-1.60156 0,-0.9375 0.68359,-1.60156 0.6836,-0.66407 1.6211,-0.66407 0.9375,0 1.60156,0.66407 0.68359,0.66406 0.68359,1.60156 0,0.9375 -0.68359,1.60156 -0.66406,0.66406 -1.60156,0.66406 z m 0.8789,15.85938 q 0,1.17187 0.0586,3.51562 0.0781,2.32422 0.0781,3.4961 0,0.85937 -0.52734,1.40625 -0.52734,0.54687 -1.38672,0.54687 -0.83984,0 -1.38672,-0.54687 -0.52734,-0.54688 -0.52734,-1.40625 0,-1.17188 -0.0781,-3.4961 -0.0586,-2.34375 -0.0586,-3.51562 0,-1.83594 0.19531,-4.57031 0.19531,-2.75391 0.19531,-4.58985 0,-0.8789 0.52735,-1.42578 0.54687,-0.54687 1.38672,-0.54687 0.83984,0 1.36718,0.54687 0.54688,0.54688 0.54688,1.42578 0,1.83594 -0.19531,4.58985 -0.19532,2.73437 -0.19532,4.57031 z"
         id="path4236"
         inkscape:connector-curvature="0" />
      <path
         d="m 250.17383,376.14646 q -1.67969,0 -1.89453,-1.83593 l -0.54688,-4.27735 q -0.27344,-2.28515 -0.27344,-4.27734 0,-0.54688 0.0586,-1.85547 0.0781,-1.30859 0.0781,-1.85547 0,-4.21875 -1.5625,-4.21875 -2.1875,0 -4.17968,2.59766 -1.79688,2.36328 -2.8125,5.97656 -0.0391,0.76172 -0.17579,1.91406 -0.11718,0.97657 -0.11718,1.89453 0,0.58594 0.11718,1.75782 0.11719,1.17187 0.11719,1.75781 0,0.87891 -0.54687,1.42578 -0.52735,0.54688 -1.36719,0.54688 -0.85938,0 -1.38672,-0.54688 -0.52734,-0.54687 -0.52734,-1.42578 0,-0.58594 -0.13672,-1.75781 -0.11719,-1.17188 -0.11719,-1.75782 0,-2.01171 0.27344,-5.5664 0.29297,-3.57422 0.29297,-5.58594 0,-0.625 -0.0781,-1.85547 -0.0586,-1.23047 -0.0586,-1.85547 0,-0.83984 0.54687,-1.36718 0.56641,-0.54688 1.38672,-0.54688 1.79688,0 1.97266,2.53906 l 0.0586,2.28516 q 3.28125,-4.375 6.73828,-4.375 3.125,0 4.35547,2.75391 0.83985,1.83593 0.91797,5.42968 l 0,1.97266 -0.0195,1.81641 q 0,1.62109 0.41016,4.19921 0.42968,2.5586 0.42968,4.16016 0,0.85938 -0.5664,1.38672 -0.54688,0.54687 -1.38672,0.54687 z"
         id="path4238"
         inkscape:connector-curvature="0" />
      <path
         d="m 262.53711,350.05271 c -0.625,0 -1.16536,-0.22135 -1.62109,-0.66406 -0.44271,-0.44271 -0.66407,-0.97005 -0.66407,-1.58203 0,-0.625 0.22136,-1.15885 0.66407,-1.60156 0.45573,-0.44271 0.99609,-0.66406 1.62109,-0.66406 0.625,0 1.16536,0.22135 1.62109,0.66406 0.45573,0.44271 0.6836,0.97656 0.6836,1.60156 0,0.61198 -0.22787,1.13932 -0.6836,1.58203 -0.45573,0.44271 -0.99609,0.66406 -1.62109,0.66406 z m -9.83046,36.02384 c 7.94962,-11.80331 8.34608,-29.24649 8.34608,-29.24649 0,-0.65104 0.18229,-1.23047 0.54688,-1.73828 0.37761,-0.50781 0.85287,-0.76172 1.42578,-0.76172 0.44271,0 0.88542,0.16276 1.32813,0.48828 0.44271,0.32552 0.70312,0.99609 0.70312,0.99609 0,0 3.32524,9.52906 -7.35547,31.25 -12.46642,20.64951 -25.28142,-7.49934 -107.97772,25.67719 -8.5032,4.31093 -68.099832,29.17709 -1.6211,-3.91696 68.26444,-30.23691 95.26364,-13.39764 104.6043,-22.74811 z"
         id="path4240"
         inkscape:connector-curvature="0"
         sodipodi:nodetypes="scscssssscccssccccc" />
      <path
         d="m 287.55664,376.04881 q -0.37109,0 -1.34766,-0.85938 -0.8789,-0.80078 -1.30859,-1.42578 -1.875,1.01563 -3.30078,1.52344 -1.42578,0.52734 -2.38281,0.52734 -4.57032,0 -6.66016,-2.57812 -1.97266,-2.42188 -1.97266,-7.42188 0,-4.72656 3.24219,-8.08593 3.26172,-3.35938 7.77344,-3.35938 1.69922,0 3.80859,0.87891 2.65625,1.09375 2.65625,2.63672 0,0.52734 -0.39062,0.9375 -0.19531,0.74218 -0.3125,2.4414 -0.0977,1.69922 -0.11719,4.35547 -0.0195,2.42188 0.33203,3.82813 0.19531,0.85937 1.23047,3.4375 0.13672,0.35156 0.44922,1.03515 l 0.11719,0.33203 q 0,0.78125 -0.54688,1.28907 -0.54687,0.50781 -1.26953,0.50781 z m -4.0625,-13.57422 q 0,-0.83984 0.0977,-1.81641 0.11718,-0.99609 0.33203,-2.10937 -0.72266,-0.3711 -1.25,-0.54688 -0.50781,-0.17578 -0.82031,-0.17578 -3.02735,0 -5.23438,2.48047 -2.1875,2.46094 -2.1875,5.68359 0,3.20313 1.13281,4.80469 1.13282,1.60156 3.39844,1.60156 1.875,0 3.18359,-0.68359 0.70313,-0.37109 1.97266,-1.48437 -0.625,-5.17579 -0.625,-7.75391 z"
         id="path4242"
         inkscape:connector-curvature="0" />
      <path
         d="m 305.95508,359.72068 q -1.07422,0 -1.50391,-0.72265 -0.29297,-0.50782 -0.50781,-2.10938 -1.46484,0.3711 -4.51172,1.36719 -3.14453,1.25 -3.16406,3.08594 0.58594,0.21484 1.15234,0.3125 4.49219,0.80078 6.67969,2.20703 3.18359,2.05078 3.18359,5.9375 0,3.18359 -2.7539,4.80469 -2.28516,1.32812 -5.78125,1.32812 -2.5586,0 -4.88282,-0.85937 -3.00781,-1.09375 -3.00781,-3.04688 0,-0.78125 0.60547,-1.36719 0.625,-0.58593 1.40625,-0.58593 0.60547,0 1.5625,0.9375 0.46875,0.44921 2.10938,0.74218 1.30859,0.23438 2.20703,0.23438 1.64062,0 2.89062,-0.39063 1.81641,-0.5664 1.81641,-1.79687 0,-2.65625 -3.71094,-3.59375 l -2.03125,-0.44922 q -2.59766,-0.56641 -3.69141,-1.32813 -1.58203,-1.09375 -1.58203,-3.30078 0,-4.08203 3.84766,-5.82031 1.17187,-0.52734 3.75,-1.25 2.57812,-0.74219 3.69141,-1.25 0.80078,-0.35156 1.73828,-0.35156 0.83984,0 1.36718,0.54687 0.54688,0.54688 0.54688,1.42578 0,0.56641 0.23437,1.66016 0.25391,1.09375 0.25391,1.66016 0,0.8789 -0.54687,1.42578 -0.52735,0.54687 -1.36719,0.54687 z"
         id="path4244"
         inkscape:connector-curvature="0" />
    </g>
    <flowRoot
       xml:space="preserve"
       id="flowRoot4136-8-6"
       style="font-style:normal;font-variant:normal;font-weight:normal;font-stretch:normal;font-size:40px;line-height:125%;font-family:'Comic Sans MS';-inkscape-font-specification:'Comic Sans MS';letter-spacing:0px;word-spacing:0px;fill:#000000;fill-opacity:1;stroke:none;stroke-width:1px;stroke-linecap:butt;stroke-linejoin:miter;stroke-opacity:1"
       transform="translate(-26.69969,127.3261)"
       inkscape:export-xdpi="150"
       inkscape:export-ydpi="150"><flowRegion
         id="flowRegion4138-1-4"><rect
           id="rect4140-5-6"
           width="671.42859"
           height="194.28572"
           x="128.57143"
           y="335.21936"
           style="font-style:normal;font-variant:normal;font-weight:normal;font-stretch:normal;font-family:'Comic Sans MS';-inkscape-font-specification:'Comic Sans MS'" /></flowRegion><flowPara
         id="flowPara4142-2-0">D D</flowPara></flowRoot>    <path
       style="fill:#000000"
       d="m 136.27539,443.96094 c -10.34154,0.006 -20.54203,3.18192 -30.13672,9.49609 -6.281533,4.13383 -11.197684,9.17582 -15.156248,15.61914 l 14.310548,0 -1.53125,-1.73242 2.28516,-2.90625 c 1.25685,-1.59782 2.98312,-2.6366 3.83789,-2.30859 0.85477,0.32801 1.59618,0.23235 1.64648,-0.21289 0.82991,-7.34089 0.18241,-8.5959 -2.48828,-4.82032 -1.6919,2.39186 -4.99219,3.55388 -4.99219,1.75782 0,-0.61957 0.6885,-0.96848 1.5293,-0.7754 0.84079,0.19308 1.80073,-0.69531 2.13476,-1.97265 0.33402,-1.27732 1.14347,-2.32227 1.79688,-2.32227 0.65343,0 2.11501,-0.83788 3.24805,-1.86328 1.91963,-1.73723 2.05859,-1.73279 2.05859,0.0664 0,1.17263 -0.51093,1.61511 -1.30078,1.12695 -0.81225,-0.50199 -0.99347,-0.30808 -0.48438,0.51563 1.11583,1.80545 2.91211,0.49664 2.91211,-2.1211 0,-4.93793 23.55307,-7.52599 35.68946,-3.92187 3.12511,0.92805 6.97185,2.70291 8.54882,3.94336 1.57698,1.24045 3.68668,2.2539 4.6875,2.2539 1.67002,0 1.66821,0.23082 -0.0195,2.80664 -1.657,2.5289 -4.78752,3.0072 -3.23437,0.49414 0.72158,-1.16754 -4.79234,-3.63419 -6.19141,-2.76953 -0.48691,0.30092 -1.53388,2.11264 -2.32617,4.02539 -1.26002,3.04195 -1.18896,3.71541 0.57422,5.375 1.54471,1.45393 1.82818,1.50191 1.21094,0.20704 -0.44301,-0.92937 -0.007,-0.70463 0.96875,0.49804 0.97531,1.20267 1.83666,1.83641 1.91406,1.4082 0.51774,-2.8626 0.46519,-3.72608 -0.28906,-4.75976 -0.46726,-0.64036 -0.37934,-1.90784 0.19531,-2.81641 0.823,-1.30127 1.04695,-1.11372 1.06055,0.88282 0.009,1.39404 0.52496,2.53515 1.14453,2.53515 1.29331,0 1.56137,4.43061 0.28125,4.64844 -0.46468,0.0791 -1.99497,0.26535 -3.40235,0.41211 -1.81479,0.18925 -6.46205,2.3457 -4.75976,2.3457 l 30.5664,0 c -5.29881,-8.50653 -12.41982,-14.69464 -22.12304,-19.36133 -7.99547,-3.84535 -16.1226,-5.75884 -24.16602,-5.7539 z m -8.14648,4.66406 c -1.91767,0.0126 -3.48762,0.25438 -3.81446,0.7832 -0.33019,0.53426 0.15519,0.68035 1.07813,0.32618 1.31468,-0.50452 1.58135,0.1137 1.23437,2.85546 -0.24358,1.9247 -0.75152,3.99878 -1.1289,4.60938 -1.08825,1.76083 0.507,5.40364 2.60937,5.95703 3.34158,0.87959 3.60938,0.80524 3.60938,-1.00977 0,-0.97703 1.55658,-3.33393 3.45898,-5.23632 2.64271,-2.64272 3.10722,-3.68174 1.9707,-4.40235 -0.81814,-0.51876 -1.00656,-0.94998 -0.41796,-0.95898 0.5886,-0.009 0.47099,-0.6169 -0.26172,-1.34961 -0.98073,-0.98073 -5.14179,-1.59528 -8.33789,-1.57422 z m 19.9414,0.0176 c -0.26814,-0.0165 -0.54016,0.0463 -0.78125,0.19531 -0.75686,0.46777 -0.64035,1.04792 0.32813,1.64649 1.80776,1.11725 2.63034,0.52368 1.5957,-1.1504 -0.25916,-0.41931 -0.69568,-0.66387 -1.14258,-0.6914 z m -27.31054,1.76172 c -1.27613,0 -2.61638,0.77309 -2.97852,1.71679 -0.55338,1.44211 -0.25746,1.50713 1.85156,0.41016 3.59165,-1.86813 3.72782,-2.12695 1.12696,-2.12695 z m -5.12305,5.73047 c -0.70645,-0.0224 -1.36506,0.107 -1.88086,0.42578 -1.76223,1.08911 -1.44382,2.88213 0.38672,2.17968 0.8667,-0.33257 1.91249,-0.0588 2.32422,0.60743 0.41172,0.66619 -0.06,1.52171 -1.04688,1.90039 -1.60012,0.61403 -1.5773,0.84551 0.19922,2.14453 2.27604,1.66428 3.70508,1.16515 3.70508,-1.29297 0,-0.92936 0.45968,-1.4058 1.02148,-1.05859 0.5618,0.34721 0.75574,-0.38798 0.42969,-1.63477 -0.46322,-1.77137 -3.01932,-3.20418 -5.13867,-3.27148 z m 21.75781,1.72656 c -1.3718,0.0532 -1.59139,0.76213 -0.42187,1.93164 0.97765,0.97765 1.73496,0.926 3.57812,-0.24219 1.10385,-0.69962 0.72385,-1.11002 -1.4082,-1.51758 -0.70462,-0.13469 -1.29078,-0.18959 -1.74805,-0.17187 z m 10.02344,6.06055 c -0.46526,-10e-6 -0.25915,1.26449 0.45703,2.80859 0.54288,1.17048 0.98626,1.92457 1.40625,2.3457 l 1.64648,0 c 0.10335,-0.0846 0.20562,-0.16459 0.31641,-0.27539 0.80078,-0.80078 -2.39743,-4.8789 -3.82617,-4.8789 z m -33.94727,0.37695 c -1.11579,-0.0218 -2.03125,1.1018 -2.03125,3.07031 0,0.69325 -0.86915,1.70703 -0.40039,1.70703 l 8.97852,0 c 1.77422,0 -1.82416,-2.51958 -2.22266,-2.12109 -0.41008,0.41008 -1.42494,-0.18272 -2.2539,-1.31641 -0.66018,-0.90284 -1.40084,-1.32674 -2.07032,-1.33984 z m 32.95703,1.87695 c -0.65614,0 -1.19335,0.50738 -1.19335,1.12695 0,0.61957 0.22287,1.125 0.49609,1.125 0.27322,0 0.81044,-0.50543 1.19336,-1.125 0.38292,-0.61957 0.16004,-1.12695 -0.4961,-1.12695 z m -63.453121,37.90039 c 0.36745,4.21611 1.133361,8.25269 2.320313,11.66602 6.414324,18.44571 22.172448,32.17184 41.351558,36.02148 25.96392,5.21148 52.73056,-10.43241 61.62891,-36.02148 1.1853,-3.40857 1.95095,-7.4465 2.31836,-11.66602 l -2.00391,0 c -0.0863,7.32205 -0.67764,9.17267 -4.16992,16.48633 -5.57177,11.6686 -13.70137,19.79458 -25.35156,25.33789 -8.16865,3.88674 -9.56969,4.1894 -20.59375,4.45117 -7.52533,0.1787 -13.4672,-0.2624 -16.33399,-1.21094 -15.19016,-5.02597 -26.365302,-14.70805 -32.988276,-28.57812 -3.393795,-7.10741 -4.027431,-8.71247 -4.142578,-16.48633 z m 17.876951,0 c 1.41935,1.2276 2.76836,2.17517 3.26563,2.24219 0.61958,0.0834 1.60441,0.20985 2.1875,0.28125 0.58311,0.0715 0.18036,0.77261 -0.89453,1.55859 -4.43482,3.24282 -1.63457,15.27611 4,17.1875 1.05255,0.35705 2.24881,1.76461 2.6582,3.12696 1.60781,5.35026 7.34062,16.3497 8.81641,16.91601 1.2805,0.49138 1.33345,-0.002 0.29687,-2.74805 -1.02522,-2.71614 -0.94739,-3.54276 0.41211,-4.40234 0.92082,-0.5822 1.21501,-1.06717 0.6543,-1.07617 -0.56071,-0.009 -0.25738,-0.90403 0.67383,-1.98828 0.93122,-1.08426 2.00805,-2.8591 2.39257,-3.94336 0.38451,-1.08425 1.47502,-1.9707 2.42383,-1.9707 1.09159,0 1.72461,-1.04034 1.72461,-2.83204 0,-1.55734 0.63372,-3.85386 1.4082,-5.10351 1.71434,-2.76618 0.24172,-3.98032 -6.14062,-5.0586 -2.31888,-0.39177 -4.10451,-1.25297 -3.9668,-1.91406 0.13771,-0.66108 -2.28299,-2.46732 -5.38086,-4.01367 -3.09787,-1.54635 -6.3929,-3.25762 -7.32226,-3.80469 -0.92936,-0.54708 -2.57786,-1.29414 -3.66211,-1.6582 -0.48326,-0.16226 -0.92178,-0.45305 -1.26563,-0.79883 z m 59.02735,2.24024 c 0,1.83807 0.58003,3.92185 1.28906,4.63086 0.96783,0.96785 0.9397,2.13364 -0.11328,4.67578 -0.90375,2.18186 -1.12732,5.3859 -0.62891,9.00976 0.74881,5.44449 0.86304,5.58955 3.60547,4.54688 3.01423,-1.14601 7.01387,-5.29962 7.07617,-7.34961 0.0206,-0.67844 1.04991,-2.15008 2.28906,-3.27149 1.23915,-1.12142 2.25391,-3.36356 2.25391,-4.98242 0,-1.61889 1.17906,-4.70975 2.62109,-6.86719 0.66012,-0.98761 1.19361,-1.84114 1.66602,-2.63281 -6.09764,1.19875 -18.65159,-1.28805 -20.05859,2.24024 z m 20.30468,8.99804 c -1.64593,0.15564 -5.97635,6.88884 -5.12304,8.26953 0.99414,1.60854 2.84179,0.36935 2.84179,-1.90625 0,-0.9989 0.79396,-2.69214 1.76368,-3.76367 0.96973,-1.07154 1.33369,-2.21454 0.80859,-2.53906 -0.0835,-0.0516 -0.18129,-0.0709 -0.29102,-0.0606 z"
       id="path4213"
       inkscape:connector-curvature="0"
       sodipodi:nodetypes="csccccscssssssscsssssssssssccsccscsscscccccssssscssccccccscsscscccssssccsssccscccccssssccssssscsssccssssscccccsssscssssssssssssccccssscssscccsssccc"
       inkscape:export-xdpi="150"
       inkscape:export-ydpi="150" />
    <path
       style="fill:#000000"
       d="m -178.70886,447.9074 c -19.17911,-3.84964 -34.9376,-17.57742 -41.35192,-36.02313 -3.53651,-10.16996 -3.42131,-25.83463 0.26093,-35.48469 4.65316,-12.19449 11.05413,-20.52914 20.58158,-26.79907 17.05723,-11.2252 36.029,-12.53311 54.30434,-3.74373 13.52728,6.50584 22.054,15.94541 27.58917,30.5428 3.66442,9.66389 3.77256,25.33979 0.24477,35.48469 -8.89836,25.58907 -35.66495,41.23461 -61.62887,36.02313 z m 32.42098,-5.86482 c 11.65018,-5.54331 19.77955,-13.66794 25.35133,-25.33654 3.90462,-8.17721 4.18507,-9.46945 4.18507,-19.28425 0,-9.89591 -0.16701,-10.6474 -2.81625,-12.67271 -1.54894,-1.18413 -3.48325,-2.71121 -4.29849,-3.3935 -2.87221,-2.40387 -2.63125,-0.0203 0.25132,2.48605 3.40766,2.96291 3.56986,4.08453 1.10053,7.60999 l -1.82016,2.59862 -1.47712,-2.62959 c -0.81242,-1.44628 -2.34087,-4.29522 -3.39655,-6.33099 -3.18859,-6.14876 -3.13525,-3.167 0.0643,3.59634 1.63941,3.46543 3.68841,6.30079 4.55333,6.30079 1.91747,0 1.15408,2.40771 -2.49382,7.86536 -1.44203,2.15744 -2.62188,5.24714 -2.62188,6.86603 0,1.61886 -1.01384,3.86091 -2.25299,4.98233 -1.23915,1.12141 -2.26986,2.59402 -2.29048,3.27246 -0.0623,2.04999 -4.06033,6.20334 -7.07455,7.34935 -2.74243,1.04267 -2.85749,0.89761 -3.6063,-4.54688 -0.49841,-3.62386 -0.27468,-6.8281 0.62907,-9.00996 1.05298,-2.54214 1.08126,-3.70734 0.11343,-4.67519 -0.70903,-0.70901 -1.28914,-2.79299 -1.28914,-4.63106 0,-1.83806 -0.33355,-3.0084 -0.74122,-2.60072 -0.40768,0.40767 -1.31213,0.26742 -2.0099,-0.31169 -0.74238,-0.61611 -2.98988,-0.66473 -5.41765,-0.11718 -3.84462,0.86711 -4.35546,0.665 -6.96432,-2.7554 -1.95156,-2.55863 -2.68411,-4.72843 -2.38753,-7.07188 0.60856,-4.80854 6.04779,-12.60303 8.93997,-12.8111 1.3117,-0.0944 3.09509,-0.22357 3.96305,-0.28711 0.86798,-0.0635 1.97292,-1.12689 2.45545,-2.36302 0.83251,-2.13276 0.88135,-2.11942 0.95648,0.26112 0.10443,3.30741 4.07678,5.55677 9.63749,5.4572 3.2587,-0.0584 4.58896,-0.59686 4.85347,-1.96477 0.24184,-1.25069 -0.51013,-2.00835 -2.23608,-2.25299 -3.26249,-0.46244 -2.36744,-2.63726 1.06064,-2.57719 2.93902,0.0515 2.95008,0.0271 1.2318,-2.72437 -1.44352,-2.31144 -5.45617,-1.94971 -5.45617,0.49186 0,2.65761 -2.2077,2.9505 -5.0987,0.67643 -2.39597,-1.88466 -3.33377,-2.0289 -6.18767,-0.95168 -1.85004,0.69832 -3.65945,2.20145 -4.0209,3.34029 -0.9159,2.88572 -5.54225,2.14885 -5.50575,-0.87694 0.0179,-1.48186 0.72792,-2.19356 2.07451,-2.07934 1.47109,0.12476 1.89418,-0.41209 1.50315,-1.90737 -0.65528,-2.50581 2.66365,-5.78898 6.22776,-6.16065 1.40738,-0.14676 2.93907,-0.33152 3.40375,-0.41061 1.28012,-0.21783 1.01168,-4.64975 -0.28163,-4.64975 -0.61957,0 -1.13425,-1.14058 -1.14373,-2.53462 -0.0136,-1.99654 -0.23907,-2.18392 -1.06207,-0.88265 -0.57465,0.90857 -0.66252,2.17588 -0.19526,2.81624 0.75425,1.03368 0.80662,1.89647 0.28888,4.75908 -0.0774,0.4282 -0.93879,-0.20545 -1.9141,-1.40812 -0.9753,-1.20267 -1.41081,-1.4263 -0.9678,-0.49694 0.61724,1.29487 0.3344,1.24637 -1.21031,-0.20756 -1.76318,-1.65959 -1.83527,-2.33309 -0.57525,-5.37504 0.79229,-1.91275 1.83889,-3.72394 2.3258,-4.02486 1.39907,-0.86466 6.91458,1.60099 6.193,2.76853 -1.55315,2.51306 1.57584,2.03592 3.23283,-0.49298 1.68774,-2.57582 1.68932,-2.80657 0.0193,-2.80657 -1.00081,0 -3.1099,-1.01491 -4.68688,-2.25536 -1.57697,-1.24045 -5.42414,-3.01468 -8.54925,-3.94273 -12.13639,-3.60412 -35.68854,-1.01568 -35.68854,3.92225 0,2.61774 -1.79663,3.92561 -2.91246,2.12016 -0.50909,-0.82371 -0.32684,-1.01713 0.48541,-0.51514 0.78985,0.48816 1.30056,0.0456 1.30056,-1.12703 0,-1.7992 -0.14045,-1.80373 -2.06008,-0.0665 -1.13304,1.0254 -2.59468,1.86434 -3.24811,1.86434 -0.65341,0 -1.46134,1.0451 -1.79536,2.32242 -0.33403,1.27734 -1.29525,2.16446 -2.13604,1.97138 -0.8408,-0.19309 -1.52873,0.15587 -1.52873,0.77544 0,1.79606 3.2997,0.63405 4.9916,-1.75781 2.67069,-3.77558 3.31865,-2.52057 2.48874,4.82032 -0.0503,0.44524 -0.79087,0.54116 -1.64564,0.21315 -0.85477,-0.32801 -2.58246,0.71095 -3.83931,2.30877 l -2.28519,2.90516 2.43119,2.74948 c 1.81601,2.05378 2.52334,2.33365 2.7954,1.10608 0.20033,-0.90388 0.83399,-1.64342 1.40812,-1.64342 0.57416,0 1.04391,-0.98393 1.04391,-2.18651 0,-3.14961 2.34153,-4.13653 4.102,-1.72895 0.82896,1.13369 1.84272,1.72573 2.2528,1.31565 0.41008,-0.41007 1.444,0.60059 2.29761,2.24593 1.73836,3.3507 1.07011,4.49417 -2.94902,5.04611 -2.71506,0.37286 -2.72127,0.40101 -0.56325,2.55207 2.15814,2.15118 2.15564,2.16815 -0.22782,1.54619 -2.95574,-0.77129 -3.28901,-0.53427 -8.67958,6.1731 -2.7972,3.48049 -4.09251,6.07307 -3.65835,7.32223 0.63143,1.81673 0.58163,1.81783 -0.82218,0.0183 -2.30806,-2.95881 -8.00724,-1.95802 -8.37825,1.47125 -0.1605,1.48357 0.21969,3.45778 0.84488,4.38714 1.01039,1.502 1.25994,1.502 2.24594,0 0.90087,-1.37233 1.11248,-1.21362 1.1265,0.84487 0.0101,1.49434 0.71077,2.53463 1.707,2.53463 0.92935,0 1.68974,0.70126 1.68974,1.55836 0,0.85711 0.88712,1.85623 1.97137,2.22029 1.08425,0.36406 2.73176,1.10953 3.66112,1.65661 0.92936,0.54707 4.22436,2.25988 7.32223,3.80623 3.09787,1.54635 5.51982,3.35245 5.38211,4.01353 -0.13771,0.66109 1.6469,1.52252 3.96578,1.91429 6.38234,1.07828 7.8558,2.29181 6.14146,5.05799 -0.77448,1.24965 -1.40813,3.54627 -1.40813,5.10361 0,1.7917 -0.63351,2.83153 -1.7251,2.83153 -0.94881,0 -2.03971,0.88712 -2.42422,1.97137 -0.38452,1.08426 -1.46102,2.85848 -2.39224,3.94274 -0.9312,1.08425 -1.23435,1.97913 -0.67364,1.98862 0.56071,0.009 0.26606,0.49361 -0.65476,1.07581 -1.3595,0.85958 -1.43688,1.68735 -0.41166,4.40349 1.03658,2.7462 0.98339,3.2378 -0.29711,2.74642 -1.47579,-0.56631 -7.2083,-11.56544 -8.81611,-16.9157 -0.40939,-1.36235 -1.60556,-2.76914 -2.65811,-3.12619 -5.63457,-1.91139 -8.43555,-13.94465 -4.00073,-17.18747 1.07489,-0.78598 1.47727,-1.48753 0.89416,-1.55899 -0.58309,-0.0714 -1.5671,-0.19819 -2.18668,-0.28162 -0.61957,-0.0835 -2.56074,-1.51439 -4.31371,-3.17992 -1.75297,-1.66552 -3.86852,-2.76679 -4.70122,-2.44724 -1.84253,0.70704 -3.44402,-2.08346 -4.62755,-8.06324 l -0.88774,-4.48525 -0.8526,3.3795 c -0.53455,2.11882 -0.72556,0.0177 -0.51206,-5.6325 l 0.34055,-9.01198 -1.78759,3.94274 c -1.31169,2.8931 -1.79038,7.54153 -1.79806,17.46072 -0.0101,13.284 0.0619,13.66967 4.17459,22.2825 6.62297,13.87007 17.79919,23.55168 32.98936,28.57766 2.86679,0.94853 8.80889,1.38871 16.33422,1.21001 11.02406,-0.26177 12.42409,-0.5644 20.59274,-4.45114 z m 15.99243,-22.31486 c -0.91019,-1.47274 4.07713,-9.03593 5.41375,-8.20984 0.5251,0.32452 0.16133,1.46675 -0.8084,2.53829 -0.96972,1.07153 -1.76313,2.76552 -1.76313,3.76442 0,2.2756 -1.84808,3.51567 -2.84222,1.90713 z m -70.7875,-25.30417 c 0.42779,-1.1148 -0.0633,-1.72001 -1.44346,-1.77869 -1.16846,-0.0496 -1.47463,-0.33831 -0.69359,-0.65385 1.67182,-0.67542 9.00262,1.59772 9.91535,3.07457 0.35382,0.57249 -0.76915,0.50389 -2.4955,-0.15248 -2.21291,-0.84134 -3.2565,-0.84034 -3.53775,0.003 -0.21941,0.65826 -0.84768,1.19681 -1.39619,1.19681 -0.54849,0 -0.70548,-0.76038 -0.34886,-1.68974 z m 16.7416,-21.96671 c -0.38292,-0.61957 0.124,-1.1265 1.12649,-1.1265 1.0025,0 1.50942,0.50693 1.12651,1.1265 -0.38292,0.61958 -0.88985,1.1265 -1.12651,1.1265 -0.23665,0 -0.74357,-0.50692 -1.12649,-1.1265 z m 38.72049,-0.84487 c -1.40123,-1.78669 -1.36139,-1.82654 0.42531,-0.42533 1.87646,1.47163 2.4732,2.3967 1.54606,2.3967 -0.23393,0 -1.12105,-0.88712 -1.97137,-1.97137 z m -11.86018,-8.73915 c -0.71618,-1.5441 -0.92148,-2.80746 -0.45622,-2.80746 1.42874,0 4.62683,4.07826 3.82605,4.87904 -1.28701,1.28702 -2.02149,0.83551 -3.36983,-2.07158 z m -2.64061,0.57204 c 0,-0.61957 0.53684,-1.1265 1.19298,-1.1265 0.65614,0 0.87969,0.50693 0.49677,1.1265 -0.38292,0.61957 -0.91977,1.12649 -1.19299,1.12649 -0.27322,0 -0.49676,-0.50692 -0.49676,-1.12649 z m -29.6161,-3.90941 c -1.77652,-1.29902 -1.79792,-1.53112 -0.1978,-2.14515 0.98684,-0.37868 1.45738,-1.23358 1.04566,-1.89977 -0.41173,-0.66619 -1.4577,-0.93913 -2.3244,-0.60656 -1.83054,0.70245 -2.14751,-1.0913 -0.38528,-2.18041 2.06321,-1.27512 6.40092,0.48321 7.01855,2.84504 0.32605,1.24679 0.13316,1.9828 -0.42864,1.63559 -0.5618,-0.34721 -1.02144,0.1291 -1.02144,1.05846 0,2.45812 -1.43061,2.95708 -3.70665,1.2928 z m 12.48994,-0.23642 c -2.10237,-0.55339 -3.69833,-4.19537 -2.61008,-5.9562 0.37738,-0.6106 0.88544,-2.68495 1.12902,-4.60965 0.34698,-2.74176 0.0795,-3.36004 -1.23518,-2.85553 -0.92294,0.35417 -1.40792,0.20682 -1.07773,-0.32744 0.87156,-1.4102 10.58389,-0.77768 12.15305,0.79148 0.73271,0.73271 0.85062,1.33996 0.26202,1.34944 -0.5886,0.009 -0.40078,0.44169 0.41736,0.96045 1.13652,0.72061 0.67134,1.75936 -1.97137,4.40208 -1.9024,1.90239 -3.45891,4.25828 -3.45891,5.23531 0,1.81501 -0.2666,1.88965 -3.60818,1.01006 z m 8.86518,-3.36416 c -1.55935,-1.55935 -0.64967,-2.29669 2.16882,-1.7579 2.13205,0.40756 2.51197,0.81666 1.40812,1.51628 -1.84316,1.16819 -2.59929,1.21927 -3.57694,0.24162 z m -19.19235,-7.67166 c 0.36214,-0.9437 1.70253,-1.71582 2.97866,-1.71582 2.60086,0 2.46385,0.25834 -1.1278,2.12647 -2.10902,1.09697 -2.40424,1.03146 -1.85086,-0.41065 z m 29.83506,-1.63625 c -0.96848,-0.59856 -1.0837,-1.17911 -0.32684,-1.64688 0.6429,-0.39733 1.50817,-0.17351 1.92282,0.49739 1.03464,1.67408 0.21178,2.26674 -1.59598,1.14949 z m 31.7585,25.54826 c -1.11928,-2.01362 -2.16178,-3.87234 -2.31668,-4.1305 -0.15489,-0.25815 -0.53728,-0.21371 -0.84976,0.0988 -0.84189,0.84189 2.80392,7.69286 4.09382,7.69286 0.60923,0 0.1919,-1.6475 -0.92738,-3.66112 z"
       id="path4213-1"
       inkscape:connector-curvature="0" />
    <path
       style="color:#000000;clip-rule:nonzero;display:inline;overflow:visible;visibility:visible;opacity:1;isolation:auto;mix-blend-mode:normal;color-interpolation:sRGB;color-interpolation-filters:linearRGB;solid-color:#000000;solid-opacity:1;fill:#304515;fill-opacity:1;fill-rule:evenodd;stroke:none;stroke-width:6;stroke-linecap:round;stroke-linejoin:round;stroke-miterlimit:4;stroke-dasharray:none;stroke-dashoffset:0;stroke-opacity:1;color-rendering:auto;image-rendering:auto;shape-rendering:auto;text-rendering:auto;enable-background:accumulate"
       d="m 117.95731,655.45787 -13.65039,14.3789 -11.628907,0 -10.357422,14.76172 13.8125,0 a 5.8928571,5.8928571 0 0 1 -0.0625,-0.80859 5.8928571,5.8928571 0 0 1 5.894539,-5.89258 5.8928571,5.8928571 0 0 1 5.89257,5.89258 5.8928571,5.8928571 0 0 1 -0.0625,0.80859 l 28.33789,0 a 5.8928571,5.8928571 0 0 1 -0.0625,-0.80859 5.8928571,5.8928571 0 0 1 5.89454,-5.89258 5.8928571,5.8928571 0 0 1 5.89257,5.89258 5.8928571,5.8928571 0 0 1 -0.0625,0.80859 l 16.65039,0 0,-14.375 -22.83789,0 c 0,-0.11079 -1.11132,-14.76562 -1.11132,-14.76562 l -22.53907,0 z"
       id="rect4286"
       inkscape:connector-curvature="0"
       inkscape:export-xdpi="150"
       inkscape:export-ydpi="150" />
    <path
       style="fill:#6a6a6a;fill-opacity:1;fill-rule:evenodd;stroke:none;stroke-width:1px;stroke-linecap:butt;stroke-linejoin:miter;stroke-opacity:1"
       inkscape:path-effect="#path-effect4291"
       inkscape:original-d="m 164.46428,684.86221 c 0.64844,-2.33648 5.89142,-3.14322 5.83864,-4.33898 -0.0528,-1.19576 -1.54312,-4.69399 0.30793,-6.92985 1.83301,-2.21407 3.56669,-4.37595 5.42938,-6.67607 1.87051,-2.30977 4.97721,-4.339 4.23302,-7.56624 -0.84023,-3.64374 -2.85627,-7.81352 -0.84748,-11.32441 1.85994,-3.25074 6.51567,-4.2343 9.97968,-2.92895 3.19578,1.20428 5.95813,3.93556 6.8517,7.24939 0.74325,2.75638 0.29515,6.97108 3.40896,7.98649 5.01197,1.63439 9.8257,-3.8565 14.81467,-2.49342 2.8305,0.77335 1.02135,4.5146 -0.60952,6.15292 -1.69909,1.70685 -4.54675,3.56107 -4.16741,6.07997 0.40709,2.7032 4.93147,2.43282 5.74359,5.10847 0.70706,2.32951 -0.68448,4.83631 -1.9816,6.78101 -2.27964,3.41775 -6.44452,5.00948 -10.54715,5.1992 -3.79071,0.1753 -6.45985,-3.7123 -10.12387,-3.08216 -3.22009,0.55379 -1.17269,4.79401 -3.93392,6.30623 -2.54164,1.39196 -5.81403,2.89103 -8.34163,1.52877 -2.60155,-1.40212 -3.59291,-5.51657 -6.86792,-5.81952 -2.59917,-0.24043 -5.73135,0.70892 -8.35944,0.77909 -1.45638,0.0389 -1.02156,-1.31318 -0.82763,-2.01194 z"
       id="path4289"
       d="m 164.46428,684.86221 c 0.086,-0.62477 0.46418,-1.18251 0.94555,-1.58996 0.48137,-0.40745 1.06152,-0.68002 1.64856,-0.91049 0.58704,-0.23048 1.18969,-0.4242 1.75783,-0.69798 0.56814,-0.27378 1.10826,-0.63605 1.4867,-1.14055 0.35479,-0.47298 0.55126,-1.05156 0.62982,-1.63758 0.0786,-0.58602 0.0441,-1.18183 -0.0284,-1.76862 -0.14512,-1.17359 -0.4425,-2.35056 -0.29346,-3.52365 0.18543,-1.45949 1.04947,-2.75427 2.08198,-3.80233 1.03252,-1.04805 2.24413,-1.90044 3.3474,-2.87374 1.11284,-0.98174 2.12144,-2.09545 2.88236,-3.36951 0.76092,-1.27406 1.26863,-2.71501 1.35066,-4.19673 0.10613,-1.91708 -0.49213,-3.79196 -0.9221,-5.66322 -0.21499,-0.93562 -0.38954,-1.88552 -0.41288,-2.84525 -0.0233,-0.95972 0.10898,-1.9337 0.4875,-2.81594 0.37839,-0.88192 0.99803,-1.65401 1.75517,-2.24366 0.75715,-0.58965 1.64906,-0.99879 2.58188,-1.22419 1.86563,-0.45079 3.85623,-0.16294 5.64263,0.5389 1.60237,0.62954 3.07787,1.59166 4.27047,2.83328 1.1926,1.24161 2.09836,2.76361 2.58123,4.41611 0.42045,1.43886 0.51997,2.95459 0.91407,4.40089 0.19704,0.72316 0.46992,1.43137 0.87661,2.06095 0.4067,0.62959 0.95299,1.17945 1.61828,1.52465 0.59469,0.30857 1.27048,0.44622 1.94044,0.44311 0.66997,-0.003 1.33484,-0.14365 1.96677,-0.3662 1.26387,-0.44509 2.38655,-1.20709 3.52284,-1.91725 1.13628,-0.71016 2.33011,-1.38684 3.6481,-1.62848 0.65899,-0.12082 1.34337,-0.12864 1.99551,0.0249 0.65214,0.15356 1.27097,0.47305 1.74101,0.95047 0.39988,0.40615 0.68561,0.9199 0.84074,1.46835 0.15514,0.54845 0.18134,1.13056 0.0978,1.69438 -0.16711,1.12762 -0.7667,2.16015 -1.54804,2.99019 -0.88726,0.94257 -2.00267,1.64623 -2.89692,2.58218 -0.44712,0.46797 -0.8394,0.99778 -1.08482,1.59668 -0.24542,0.59891 -0.33727,1.27188 -0.18567,1.90111 0.15378,0.6383 0.54857,1.19951 1.0314,1.64443 0.48283,0.44492 1.0526,0.78382 1.6291,1.09803 0.5765,0.31421 1.16609,0.60819 1.70881,0.9777 0.54272,0.36951 1.04235,0.82183 1.37428,1.38831 0.31885,0.54416 0.4713,1.17823 0.47695,1.8089 0.006,0.63067 -0.13193,1.25809 -0.3614,1.84555 -0.45893,1.17494 -1.26926,2.17488 -2.09715,3.12656 -1.35571,1.55841 -2.81843,3.06563 -4.60203,4.10743 -1.78361,1.04179 -3.93868,1.58248 -5.94512,1.09177 -1.78124,-0.43564 -3.26875,-1.61797 -4.87978,-2.49387 -0.80552,-0.43795 -1.66118,-0.80582 -2.56609,-0.95344 -0.90491,-0.14762 -1.86678,-0.0621 -2.678,0.36515 -0.55785,0.29384 -1.02691,0.73865 -1.40479,1.24337 -0.37788,0.50472 -0.66857,1.06942 -0.92289,1.64636 -0.50864,1.15388 -0.88615,2.3813 -1.60624,3.4165 -0.89622,1.28841 -2.31243,2.20493 -3.85586,2.48957 -1.54343,0.28465 -3.19543,-0.0674 -4.48577,-0.9608 -1.26005,-0.87246 -2.12808,-2.18647 -3.11566,-3.35848 -0.49379,-0.58601 -1.0273,-1.14555 -1.65008,-1.59206 -0.62278,-0.44652 -1.34133,-0.77769 -2.10218,-0.86898 -0.72131,-0.0865 -1.45335,0.0441 -2.14893,0.25377 -0.69557,0.20965 -1.36477,0.49757 -2.05077,0.7367 -0.686,0.23913 -1.39863,0.43084 -2.12508,0.43708 -0.72646,0.006 -1.47331,-0.1873 -2.03466,-0.64846 -0.29269,-0.24046 -0.52954,-0.55013 -0.67649,-0.89927 -0.14695,-0.34914 -0.20281,-0.73741 -0.15114,-1.11267 z"
       inkscape:connector-curvature="0"
       sodipodi:nodetypes="sssssssssssssssssssss"
       inkscape:export-xdpi="150"
       inkscape:export-ydpi="150" />
    <rect
       style="color:#000000;clip-rule:nonzero;display:inline;overflow:visible;visibility:visible;opacity:1;isolation:auto;mix-blend-mode:normal;color-interpolation:sRGB;color-interpolation-filters:linearRGB;solid-color:#000000;solid-opacity:1;fill:#000000;fill-opacity:1;fill-rule:evenodd;stroke:none;stroke-width:6;stroke-linecap:round;stroke-linejoin:round;stroke-miterlimit:4;stroke-dasharray:none;stroke-dashoffset:0;stroke-opacity:1;color-rendering:auto;image-rendering:auto;shape-rendering:auto;text-rendering:auto;enable-background:accumulate"
       id="rect4314"
       width="10.714286"
       height="2.3214285"
       x="152.67857"
       y="685.39789"
       rx="2.12149"
       ry="0.799941"
       inkscape:export-xdpi="150"
       inkscape:export-ydpi="150" />
    <circle
       style="color:#000000;clip-rule:nonzero;display:inline;overflow:visible;visibility:visible;opacity:1;isolation:auto;mix-blend-mode:normal;color-interpolation:sRGB;color-interpolation-filters:linearRGB;solid-color:#000000;solid-opacity:1;fill:#000000;fill-opacity:1;fill-rule:evenodd;stroke:none;stroke-width:6;stroke-linecap:round;stroke-linejoin:round;stroke-miterlimit:4;stroke-dasharray:none;stroke-dashoffset:0;stroke-opacity:1;color-rendering:auto;image-rendering:auto;shape-rendering:auto;text-rendering:auto;enable-background:accumulate"
       id="path4318"
       cx="101.96429"
       cy="683.61218"
       r="4.2857141"
       inkscape:export-xdpi="150"
       inkscape:export-ydpi="150" />
    <circle
       style="color:#000000;clip-rule:nonzero;display:inline;overflow:visible;visibility:visible;opacity:1;isolation:auto;mix-blend-mode:normal;color-interpolation:sRGB;color-interpolation-filters:linearRGB;solid-color:#000000;solid-opacity:1;fill:#000000;fill-opacity:1;fill-rule:evenodd;stroke:none;stroke-width:6;stroke-linecap:round;stroke-linejoin:round;stroke-miterlimit:4;stroke-dasharray:none;stroke-dashoffset:0;stroke-opacity:1;color-rendering:auto;image-rendering:auto;shape-rendering:auto;text-rendering:auto;enable-background:accumulate"
       id="path4318-3"
       cx="141.82143"
       cy="683.61218"
       r="4.2857141"
       inkscape:export-xdpi="150"
       inkscape:export-ydpi="150" />
    <path
       style="fill:none;fill-rule:evenodd;stroke:#ff0000;stroke-width:3;stroke-linecap:round;stroke-linejoin:round;stroke-opacity:1;stroke-miterlimit:4;stroke-dasharray:none"
       d="M 83.571429,635.39792 C 214.64286,696.82649 214.64286,696.82649 214.64286,696.82649"
       id="path4335"
       inkscape:connector-curvature="0"
       inkscape:export-xdpi="150"
       inkscape:export-ydpi="150" />
    <path
       style="fill:none;fill-rule:evenodd;stroke:#ff0000;stroke-width:3;stroke-linecap:round;stroke-linejoin:round;stroke-opacity:1;stroke-miterlimit:4;stroke-dasharray:none"
       d="M 214.64286,635.39792 C 83.571429,696.82649 83.571429,696.82649 83.571429,696.82649"
       id="path4335-9"
       inkscape:connector-curvature="0"
       inkscape:export-xdpi="150"
       inkscape:export-ydpi="150" />
  </g>
</svg>
