<?xml version="1.0" encoding="UTF-8" standalone="no"?>
<!-- Created with Inkscape (http://www.inkscape.org/) -->

<svg
   xmlns:dc="http://purl.org/dc/elements/1.1/"
   xmlns:cc="http://creativecommons.org/ns#"
   xmlns:rdf="http://www.w3.org/1999/02/22-rdf-syntax-ns#"
   xmlns:svg="http://www.w3.org/2000/svg"
   xmlns="http://www.w3.org/2000/svg"
   xmlns:sodipodi="http://sodipodi.sourceforge.net/DTD/sodipodi-0.dtd"
   xmlns:inkscape="http://www.inkscape.org/namespaces/inkscape"
   width="210mm"
   height="297mm"
   viewBox="0 0 744.09448819 1052.3622047"
   id="svg3514"
   version="1.1"
   inkscape:version="0.91 r13725"
   sodipodi:docname="DDNinjaLogo_farbig.svg">
  <defs
     id="defs3516" />
  <sodipodi:namedview
     id="base"
     pagecolor="#ffffff"
     bordercolor="#666666"
     borderopacity="1.0"
     inkscape:pageopacity="0.0"
     inkscape:pageshadow="2"
     inkscape:zoom="0.35"
     inkscape:cx="-353.57143"
     inkscape:cy="520"
     inkscape:document-units="px"
     inkscape:current-layer="layer1"
     showgrid="false"
     inkscape:window-width="1366"
     inkscape:window-height="705"
     inkscape:window-x="-8"
     inkscape:window-y="-8"
     inkscape:window-maximized="1" />
  <metadata
     id="metadata3519">
    <rdf:RDF>
      <cc:Work
         rdf:about="">
        <dc:format>image/svg+xml</dc:format>
        <dc:type
           rdf:resource="http://purl.org/dc/dcmitype/StillImage" />
        <dc:title></dc:title>
      </cc:Work>
    </rdf:RDF>
  </metadata>
  <g
     inkscape:label="Ebene 1"
     inkscape:groupmode="layer"
     id="layer1">
    <g
       transform="translate(27.339987,-293.53181)"
       style="font-style:normal;font-variant:normal;font-weight:normal;font-stretch:normal;font-size:40px;line-height:125%;font-family:'Comic Sans MS';-inkscape-font-specification:'Comic Sans MS';letter-spacing:0px;word-spacing:0px;fill:#000000;fill-opacity:1;stroke:none;stroke-width:1px;stroke-linecap:butt;stroke-linejoin:miter;stroke-opacity:1"
       id="flowRoot4136-6"
       inkscape:export-xdpi="150"
       inkscape:export-ydpi="150">
      <path
         d="m 146.54102,376.04881 q -0.3711,0 -1.34766,-0.85938 -0.87891,-0.80078 -1.30859,-1.42578 -1.875,1.01563 -3.30079,1.52344 -1.42578,0.52734 -2.38281,0.52734 -4.57031,0 -6.66015,-2.57812 -1.97266,-2.42188 -1.97266,-7.42188 0,-4.72656 3.24219,-8.08593 3.26172,-3.35938 7.77343,-3.35938 1.69922,0 3.8086,0.87891 2.65625,1.09375 2.65625,2.63672 0,0.52734 -0.39063,0.9375 -0.19531,0.74218 -0.3125,2.4414 -0.0976,1.69922 -0.11718,4.35547 -0.0195,2.42188 0.33203,3.82813 0.19531,0.85937 1.23047,3.4375 0.13671,0.35156 0.44921,1.03515 l 0.11719,0.33203 q 0,0.78125 -0.54687,1.28907 -0.54688,0.50781 -1.26953,0.50781 z m -4.0625,-13.57422 q 0,-0.83984 0.0976,-1.81641 0.11719,-0.99609 0.33203,-2.10937 -0.72265,-0.3711 -1.25,-0.54688 -0.50781,-0.17578 -0.82031,-0.17578 -3.02734,0 -5.23437,2.48047 -2.1875,2.46094 -2.1875,5.68359 0,3.20313 1.13281,4.80469 1.13281,1.60156 3.39844,1.60156 1.875,0 3.18359,-0.68359 0.70312,-0.37109 1.97266,-1.48437 -0.625,-5.17579 -0.625,-7.75391 z"
         id="path4228"
         inkscape:connector-curvature="0" />
      <path
         d="m 164.82227,358.11912 q -0.41016,0 -0.97657,-0.0391 -0.54687,-0.0391 -0.95703,-0.0391 -0.44922,0 -2.65625,0.29296 l 0.3711,11.54297 0.0195,0.85938 0.0195,0.99609 q 0.0781,4.27735 -2.05078,4.27735 -0.78125,0 -1.36719,-0.50782 -0.56641,-0.50781 -0.56641,-1.26953 0,-0.74219 0.0586,-2.22656 0.0586,-1.48438 0.0586,-2.22656 l -0.39062,-11.40625 q -1.42579,-0.0586 -4.33594,-0.33203 -1.73828,-0.23438 -1.73828,-1.9336 0,-0.85937 0.52734,-1.42578 0.52734,-0.56641 1.34766,-0.56641 l 4.10156,0.33204 q 0,-0.9961 -0.0977,-2.65625 -0.0781,-1.67969 -0.0781,-2.42188 0,-0.82031 0.5664,-1.34766 0.56641,-0.54687 1.38672,-0.54687 1.75782,0 2.05078,2.87109 0.0586,0.72266 0.0586,1.73828 l -0.0391,1.13282 -0.0195,1.21093 q 2.42188,-0.3125 2.77344,-0.3125 2.03125,0 2.65625,0.19532 1.19141,0.39062 1.19141,1.83593 0,0.85938 -0.54688,1.42579 -0.52734,0.54687 -1.36718,0.54687 z"
         id="path4230"
         inkscape:connector-curvature="0" />
      <path
         d="m 185.83789,376.04881 q -0.37109,0 -1.34766,-0.85938 -0.8789,-0.80078 -1.30859,-1.42578 -1.875,1.01563 -3.30078,1.52344 -1.42578,0.52734 -2.38281,0.52734 -4.57032,0 -6.66016,-2.57812 -1.97266,-2.42188 -1.97266,-7.42188 0,-4.72656 3.24219,-8.08593 3.26172,-3.35938 7.77344,-3.35938 1.69922,0 3.80859,0.87891 2.65625,1.09375 2.65625,2.63672 0,0.52734 -0.39062,0.9375 -0.19531,0.74218 -0.3125,2.4414 -0.0977,1.69922 -0.11719,4.35547 -0.0195,2.42188 0.33203,3.82813 0.19531,0.85937 1.23047,3.4375 0.13672,0.35156 0.44922,1.03515 l 0.11719,0.33203 q 0,0.78125 -0.54688,1.28907 -0.54687,0.50781 -1.26953,0.50781 z m -4.0625,-13.57422 q 0,-0.83984 0.0977,-1.81641 0.11718,-0.99609 0.33203,-2.10937 -0.72266,-0.3711 -1.25,-0.54688 -0.50781,-0.17578 -0.82031,-0.17578 -3.02735,0 -5.23438,2.48047 -2.1875,2.46094 -2.1875,5.68359 0,3.20313 1.13281,4.80469 1.13282,1.60156 3.39844,1.60156 1.875,0 3.18359,-0.68359 0.70313,-0.37109 1.97266,-1.48437 -0.625,-5.17579 -0.625,-7.75391 z"
         id="path4232"
         inkscape:connector-curvature="0" />
      <path
         d="m 217.98633,376.14646 q -1.67969,0 -1.89453,-1.83593 l -0.54688,-4.27735 q -0.27344,-2.28515 -0.27344,-4.27734 0,-0.54688 0.0586,-1.85547 0.0781,-1.30859 0.0781,-1.85547 0,-4.21875 -1.5625,-4.21875 -2.1875,0 -4.17968,2.59766 -1.79688,2.36328 -2.8125,5.97656 -0.0391,0.76172 -0.17579,1.91406 -0.11718,0.97657 -0.11718,1.89453 0,0.58594 0.11718,1.75782 0.11719,1.17187 0.11719,1.75781 0,0.87891 -0.54687,1.42578 -0.52735,0.54688 -1.36719,0.54688 -0.85938,0 -1.38672,-0.54688 -0.52734,-0.54687 -0.52734,-1.42578 0,-0.58594 -0.13672,-1.75781 -0.11719,-1.17188 -0.11719,-1.75782 0,-2.01171 0.27344,-5.5664 0.29297,-3.57422 0.29297,-5.58594 0,-0.625 -0.0781,-1.85547 -0.0586,-1.23047 -0.0586,-1.85547 0,-0.83984 0.54687,-1.36718 0.56641,-0.54688 1.38672,-0.54688 1.79688,0 1.97266,2.53906 l 0.0586,2.28516 q 3.28125,-4.375 6.73828,-4.375 3.125,0 4.35547,2.75391 0.83985,1.83593 0.91797,5.42968 l 0,1.97266 -0.0195,1.81641 q 0,1.62109 0.41016,4.19921 0.42968,2.5586 0.42968,4.16016 0,0.85938 -0.5664,1.38672 -0.54688,0.54687 -1.38672,0.54687 z"
         id="path4234"
         inkscape:connector-curvature="0" />
      <path
         d="m 227.67383,350.03318 q -0.9375,0 -1.6211,-0.66406 -0.68359,-0.66406 -0.68359,-1.60156 0,-0.9375 0.68359,-1.60156 0.6836,-0.66407 1.6211,-0.66407 0.9375,0 1.60156,0.66407 0.68359,0.66406 0.68359,1.60156 0,0.9375 -0.68359,1.60156 -0.66406,0.66406 -1.60156,0.66406 z m 0.8789,15.85938 q 0,1.17187 0.0586,3.51562 0.0781,2.32422 0.0781,3.4961 0,0.85937 -0.52734,1.40625 -0.52734,0.54687 -1.38672,0.54687 -0.83984,0 -1.38672,-0.54687 -0.52734,-0.54688 -0.52734,-1.40625 0,-1.17188 -0.0781,-3.4961 -0.0586,-2.34375 -0.0586,-3.51562 0,-1.83594 0.19531,-4.57031 0.19531,-2.75391 0.19531,-4.58985 0,-0.8789 0.52735,-1.42578 0.54687,-0.54687 1.38672,-0.54687 0.83984,0 1.36718,0.54687 0.54688,0.54688 0.54688,1.42578 0,1.83594 -0.19531,4.58985 -0.19532,2.73437 -0.19532,4.57031 z"
         id="path4236"
         inkscape:connector-curvature="0" />
      <path
         d="m 250.17383,376.14646 q -1.67969,0 -1.89453,-1.83593 l -0.54688,-4.27735 q -0.27344,-2.28515 -0.27344,-4.27734 0,-0.54688 0.0586,-1.85547 0.0781,-1.30859 0.0781,-1.85547 0,-4.21875 -1.5625,-4.21875 -2.1875,0 -4.17968,2.59766 -1.79688,2.36328 -2.8125,5.97656 -0.0391,0.76172 -0.17579,1.91406 -0.11718,0.97657 -0.11718,1.89453 0,0.58594 0.11718,1.75782 0.11719,1.17187 0.11719,1.75781 0,0.87891 -0.54687,1.42578 -0.52735,0.54688 -1.36719,0.54688 -0.85938,0 -1.38672,-0.54688 -0.52734,-0.54687 -0.52734,-1.42578 0,-0.58594 -0.13672,-1.75781 -0.11719,-1.17188 -0.11719,-1.75782 0,-2.01171 0.27344,-5.5664 0.29297,-3.57422 0.29297,-5.58594 0,-0.625 -0.0781,-1.85547 -0.0586,-1.23047 -0.0586,-1.85547 0,-0.83984 0.54687,-1.36718 0.56641,-0.54688 1.38672,-0.54688 1.79688,0 1.97266,2.53906 l 0.0586,2.28516 q 3.28125,-4.375 6.73828,-4.375 3.125,0 4.35547,2.75391 0.83985,1.83593 0.91797,5.42968 l 0,1.97266 -0.0195,1.81641 q 0,1.62109 0.41016,4.19921 0.42968,2.5586 0.42968,4.16016 0,0.85938 -0.5664,1.38672 -0.54688,0.54687 -1.38672,0.54687 z"
         id="path4238"
         inkscape:connector-curvature="0" />
      <path
         d="m 262.53711,350.05271 c -0.625,0 -1.16536,-0.22135 -1.62109,-0.66406 -0.44271,-0.44271 -0.66407,-0.97005 -0.66407,-1.58203 0,-0.625 0.22136,-1.15885 0.66407,-1.60156 0.45573,-0.44271 0.99609,-0.66406 1.62109,-0.66406 0.625,0 1.16536,0.22135 1.62109,0.66406 0.45573,0.44271 0.6836,0.97656 0.6836,1.60156 0,0.61198 -0.22787,1.13932 -0.6836,1.58203 -0.45573,0.44271 -0.99609,0.66406 -1.62109,0.66406 z m -9.83046,36.02384 c 7.94962,-11.80331 8.34608,-29.24649 8.34608,-29.24649 0,-0.65104 0.18229,-1.23047 0.54688,-1.73828 0.37761,-0.50781 0.85287,-0.76172 1.42578,-0.76172 0.44271,0 0.88542,0.16276 1.32813,0.48828 0.44271,0.32552 0.70312,0.99609 0.70312,0.99609 0,0 3.32524,9.52906 -7.35547,31.25 -12.46642,20.64951 -25.28142,-7.49934 -107.97772,25.67719 -8.5032,4.31093 -68.099832,29.17709 -1.6211,-3.91696 68.26444,-30.23691 95.26364,-13.39764 104.6043,-22.74811 z"
         id="path4240"
         inkscape:connector-curvature="0"
         sodipodi:nodetypes="scscssssscccssccccc" />
      <path
         d="m 287.55664,376.04881 q -0.37109,0 -1.34766,-0.85938 -0.8789,-0.80078 -1.30859,-1.42578 -1.875,1.01563 -3.30078,1.52344 -1.42578,0.52734 -2.38281,0.52734 -4.57032,0 -6.66016,-2.57812 -1.97266,-2.42188 -1.97266,-7.42188 0,-4.72656 3.24219,-8.08593 3.26172,-3.35938 7.77344,-3.35938 1.69922,0 3.80859,0.87891 2.65625,1.09375 2.65625,2.63672 0,0.52734 -0.39062,0.9375 -0.19531,0.74218 -0.3125,2.4414 -0.0977,1.69922 -0.11719,4.35547 -0.0195,2.42188 0.33203,3.82813 0.19531,0.85937 1.23047,3.4375 0.13672,0.35156 0.44922,1.03515 l 0.11719,0.33203 q 0,0.78125 -0.54688,1.28907 -0.54687,0.50781 -1.26953,0.50781 z m -4.0625,-13.57422 q 0,-0.83984 0.0977,-1.81641 0.11718,-0.99609 0.33203,-2.10937 -0.72266,-0.3711 -1.25,-0.54688 -0.50781,-0.17578 -0.82031,-0.17578 -3.02735,0 -5.23438,2.48047 -2.1875,2.46094 -2.1875,5.68359 0,3.20313 1.13281,4.80469 1.13282,1.60156 3.39844,1.60156 1.875,0 3.18359,-0.68359 0.70313,-0.37109 1.97266,-1.48437 -0.625,-5.17579 -0.625,-7.75391 z"
         id="path4242"
         inkscape:connector-curvature="0" />
      <path
         d="m 305.95508,359.72068 q -1.07422,0 -1.50391,-0.72265 -0.29297,-0.50782 -0.50781,-2.10938 -1.46484,0.3711 -4.51172,1.36719 -3.14453,1.25 -3.16406,3.08594 0.58594,0.21484 1.15234,0.3125 4.49219,0.80078 6.67969,2.20703 3.18359,2.05078 3.18359,5.9375 0,3.18359 -2.7539,4.80469 -2.28516,1.32812 -5.78125,1.32812 -2.5586,0 -4.88282,-0.85937 -3.00781,-1.09375 -3.00781,-3.04688 0,-0.78125 0.60547,-1.36719 0.625,-0.58593 1.40625,-0.58593 0.60547,0 1.5625,0.9375 0.46875,0.44921 2.10938,0.74218 1.30859,0.23438 2.20703,0.23438 1.64062,0 2.89062,-0.39063 1.81641,-0.5664 1.81641,-1.79687 0,-2.65625 -3.71094,-3.59375 l -2.03125,-0.44922 q -2.59766,-0.56641 -3.69141,-1.32813 -1.58203,-1.09375 -1.58203,-3.30078 0,-4.08203 3.84766,-5.82031 1.17187,-0.52734 3.75,-1.25 2.57812,-0.74219 3.69141,-1.25 0.80078,-0.35156 1.73828,-0.35156 0.83984,0 1.36718,0.54687 0.54688,0.54688 0.54688,1.42578 0,0.56641 0.23437,1.66016 0.25391,1.09375 0.25391,1.66016 0,0.8789 -0.54687,1.42578 -0.52735,0.54687 -1.36719,0.54687 z"
         id="path4244"
         inkscape:connector-curvature="0" />
    </g>
    <flowRoot
       xml:space="preserve"
       id="flowRoot4136-8-6"
       style="font-style:normal;font-variant:normal;font-weight:normal;font-stretch:normal;font-size:40px;line-height:125%;font-family:'Comic Sans MS';-inkscape-font-specification:'Comic Sans MS';letter-spacing:0px;word-spacing:0px;fill:#000000;fill-opacity:1;stroke:none;stroke-width:1px;stroke-linecap:butt;stroke-linejoin:miter;stroke-opacity:1"
       transform="translate(-69.150303,-290.10212)"
       inkscape:export-xdpi="150"
       inkscape:export-ydpi="150"><flowRegion
         id="flowRegion4138-1-4"><rect
           id="rect4140-5-6"
           width="671.42859"
           height="194.28572"
           x="128.57143"
           y="335.21936"
           style="font-style:normal;font-variant:normal;font-weight:normal;font-stretch:normal;font-family:'Comic Sans MS';-inkscape-font-specification:'Comic Sans MS'" /></flowRegion><flowPara
         id="flowPara4142-2-0">D D</flowPara></flowRoot>    <path
       style="fill:#000000"
       d="m 93.824778,26.532719 c -10.34154,0.006 -20.542031,3.18192 -30.136721,9.49609 -6.28153,4.13383 -11.19768,9.17582 -15.15625,15.61914 l 14.31055,0 -1.53125,-1.73242 2.28516,-2.90625 c 1.25685,-1.59782 2.98312,-2.6366 3.83789,-2.30859 0.85477,0.32801 1.59618,0.23235 1.64648,-0.21289 0.82991,-7.34089 0.18241,-8.5959 -2.48828,-4.82032 -1.6919,2.39186 -4.99219,3.55388 -4.99219,1.75782 0,-0.61957 0.6885,-0.96848 1.5293,-0.7754 0.84079,0.19308 1.80073,-0.69531 2.13476,-1.97265 0.33402,-1.27732 1.14347,-2.32227 1.79688,-2.32227 0.65343,0 2.11501,-0.83788 3.24805,-1.86328 1.91963,-1.73723 2.05859,-1.73279 2.05859,0.0664 0,1.17263 -0.51093,1.61511 -1.30078,1.12695 -0.81225,-0.50199 -0.99347,-0.30808 -0.48438,0.51563 1.11583,1.80545 2.91211,0.49664 2.91211,-2.1211 0,-4.93793 23.553071,-7.52599 35.689463,-3.92187 3.12511,0.92805 6.97185,2.70291 8.54882,3.94336 1.57698,1.24045 3.68668,2.2539 4.6875,2.2539 1.67002,0 1.66821,0.23082 -0.0195,2.80664 -1.657,2.5289 -4.78752,3.0072 -3.23437,0.49414 0.72158,-1.16754 -4.79234,-3.63419 -6.19141,-2.76953 -0.48691,0.30092 -1.53388,2.11264 -2.32617,4.02539 -1.26002,3.04195 -1.18896,3.71541 0.57422,5.375 1.54471,1.45393 1.82818,1.50191 1.21094,0.20704 -0.44301,-0.92937 -0.007,-0.70463 0.96875,0.49804 0.97531,1.20267 1.83666,1.83641 1.91406,1.4082 0.51774,-2.8626 0.46519,-3.72608 -0.28906,-4.75976 -0.46726,-0.64036 -0.37934,-1.90784 0.19531,-2.81641 0.823,-1.30127 1.04695,-1.11372 1.06055,0.88282 0.009,1.39404 0.52496,2.53515 1.14453,2.53515 1.29331,0 1.56137,4.43061 0.28125,4.64844 -0.46468,0.0791 -1.99497,0.26535 -3.40235,0.41211 -1.81479,0.18925 -6.46205,2.3457 -4.75976,2.3457 l 30.5664,0 c -5.29881,-8.50653 -12.41982,-14.69464 -22.12304,-19.36133 -7.99547,-3.84535 -16.1226,-5.75884 -24.166022,-5.7539 z m -8.14648,4.66406 c -1.91767,0.0126 -3.48762,0.25438 -3.81446,0.7832 -0.33019,0.53426 0.15519,0.68035 1.07813,0.32618 1.31468,-0.50452 1.58135,0.1137 1.23437,2.85546 -0.24358,1.9247 -0.75152,3.99878 -1.1289,4.60938 -1.08825,1.76083 0.507,5.40364 2.60937,5.95703 3.34158,0.87959 3.60938,0.80524 3.60938,-1.00977 0,-0.97703 1.55658,-3.33393 3.45898,-5.23632 2.64271,-2.64272 3.10722,-3.68174 1.9707,-4.40235 -0.81814,-0.51876 -1.00656,-0.94998 -0.41796,-0.95898 0.5886,-0.009 0.47099,-0.6169 -0.26172,-1.34961 -0.98073,-0.98073 -5.14179,-1.59528 -8.33789,-1.57422 z m 19.941402,0.0176 c -0.26814,-0.0165 -0.54016,0.0463 -0.78125,0.19531 -0.75686,0.46777 -0.64035,1.04792 0.32813,1.64649 1.80776,1.11725 2.63034,0.52368 1.5957,-1.1504 -0.25916,-0.41931 -0.69568,-0.66387 -1.14258,-0.6914 z m -27.310542,1.76172 c -1.276131,0 -2.616381,0.77309 -2.978521,1.71679 -0.55338,1.44211 -0.25746,1.50713 1.851561,0.41016 3.59165,-1.86813 3.72782,-2.12695 1.12696,-2.12695 z m -5.123051,5.73047 c -0.70645,-0.0224 -1.36506,0.107 -1.88086,0.42578 -1.76223,1.08911 -1.44382,2.88213 0.38672,2.17968 0.8667,-0.33257 1.91249,-0.0588 2.32422,0.60743 0.41172,0.66619 -0.06,1.52171 -1.04688,1.90039 -1.60012,0.61403 -1.5773,0.84551 0.19922,2.14453 2.27604,1.66428 3.70508,1.16515 3.70508,-1.29297 0,-0.92936 0.459681,-1.4058 1.021481,-1.05859 0.5618,0.34721 0.75574,-0.38798 0.42969,-1.63477 -0.46322,-1.77137 -3.019321,-3.20418 -5.138671,-3.27148 z m 21.757811,1.72656 c -1.3718,0.0532 -1.59139,0.76213 -0.42187,1.93164 0.97765,0.97765 1.73496,0.926 3.57812,-0.24219 1.10385,-0.69962 0.72385,-1.11002 -1.4082,-1.51758 -0.70462,-0.13469 -1.29078,-0.18959 -1.74805,-0.17187 z m 10.023442,6.06055 c -0.46526,-1e-5 -0.25915,1.26449 0.45703,2.80859 0.54288,1.17048 0.98626,1.92457 1.40625,2.3457 l 1.64648,0 c 0.10335,-0.0846 0.20562,-0.16459 0.31641,-0.27539 0.80078,-0.80078 -2.39743,-4.8789 -3.82617,-4.8789 z m -33.947273,0.37695 c -1.11579,-0.0218 -2.03125,1.1018 -2.03125,3.07031 0,0.69325 -0.86915,1.70703 -0.40039,1.70703 l 8.978521,0 c 1.77422,0 -1.824161,-2.51958 -2.222661,-2.12109 -0.41008,0.41008 -1.42494,-0.18272 -2.2539,-1.31641 -0.66018,-0.90284 -1.40084,-1.32674 -2.07032,-1.33984 z m 32.957033,1.87695 c -0.65614,0 -1.19335,0.50738 -1.19335,1.12695 0,0.61957 0.22287,1.125 0.49609,1.125 0.27322,0 0.81044,-0.50543 1.19336,-1.125 0.38292,-0.61957 0.16004,-1.12695 -0.4961,-1.12695 z m -63.453123,37.90039 c 0.36745,4.21611 1.13336,8.25269 2.32031,11.66602 6.41433,18.445711 22.17245,32.171841 41.351561,36.021481 25.963922,5.21148 52.730562,-10.43241 61.628912,-36.021481 1.1853,-3.40857 1.95095,-7.4465 2.31836,-11.66602 l -2.00391,0 c -0.0863,7.32205 -0.67764,9.17267 -4.16992,16.486331 -5.57177,11.6686 -13.70137,19.79458 -25.35156,25.33789 -8.16865,3.88674 -9.56969,4.1894 -20.593752,4.45117 -7.52533,0.1787 -13.4672,-0.2624 -16.33399,-1.21094 -15.190161,-5.02597 -26.365301,-14.70805 -32.988281,-28.57812 -3.39379,-7.107411 -4.02743,-8.712471 -4.14257,-16.486331 z m 17.87695,0 c 1.41935,1.2276 2.76836,2.17517 3.26563,2.24219 0.61958,0.0834 1.60441,0.20985 2.1875,0.28125 0.58311,0.0715 0.18036,0.77261 -0.89453,1.55859 -4.43482,3.24282 -1.63457,15.276111 4,17.187501 1.05255,0.35705 2.24881,1.76461 2.6582,3.12696 1.60781,5.35026 7.34062,16.3497 8.816411,16.91601 1.2805,0.49138 1.33345,-0.002 0.29687,-2.74805 -1.02522,-2.71614 -0.94739,-3.54276 0.41211,-4.40234 0.92082,-0.5822 1.21501,-1.06717 0.6543,-1.07617 -0.56071,-0.009 -0.25738,-0.90403 0.67383,-1.98828 0.93122,-1.08426 2.00805,-2.8591 2.39257,-3.94336 0.38451,-1.08425 1.47502,-1.9707 2.42383,-1.9707 1.09159,0 1.72461,-1.04034 1.72461,-2.83204 0,-1.55734 0.63372,-3.85386 1.4082,-5.10351 1.71434,-2.76618 0.24172,-3.980321 -6.14062,-5.058601 -2.31888,-0.39177 -4.10451,-1.25297 -3.9668,-1.91406 0.13771,-0.66108 -2.282991,-2.46732 -5.380861,-4.01367 -3.09787,-1.54635 -6.3929,-3.25762 -7.32226,-3.80469 -0.92936,-0.54708 -2.57786,-1.29414 -3.66211,-1.6582 -0.48326,-0.16226 -0.92178,-0.45305 -1.26563,-0.79883 z m 59.027353,2.24024 c 0,1.83807 0.58003,3.92185 1.28906,4.63086 0.96783,0.96785 0.9397,2.13364 -0.11328,4.67578 -0.90375,2.181861 -1.12732,5.385901 -0.62891,9.009761 0.74881,5.44449 0.86304,5.58955 3.60547,4.54688 3.01423,-1.14601 7.01387,-5.29962 7.07617,-7.34961 0.0206,-0.67844 1.04991,-2.15008 2.28906,-3.27149 1.23915,-1.12142 2.25391,-3.363561 2.25391,-4.982421 0,-1.61889 1.17906,-4.70975 2.62109,-6.86719 0.66012,-0.98761 1.19361,-1.84114 1.66602,-2.63281 -6.09764,1.19875 -18.65159,-1.28805 -20.05859,2.24024 z m 20.30468,8.99804 c -1.64593,0.15564 -5.97635,6.888841 -5.12304,8.269531 0.99414,1.60854 2.84179,0.36935 2.84179,-1.90625 0,-0.9989 0.79396,-2.69214 1.76368,-3.76367 0.96973,-1.071541 1.33369,-2.214541 0.80859,-2.539061 -0.0835,-0.0516 -0.18129,-0.0709 -0.29102,-0.0606 z"
       id="path4213"
       inkscape:connector-curvature="0"
       sodipodi:nodetypes="csccccscssssssscsssssssssssccsccscsscscccccssssscssccccccscsscscccssssccsssccscccccssssccssssscsssccssssscccccsssscssssssssssssccccssscssscccsssccc"
       inkscape:export-xdpi="150"
       inkscape:export-ydpi="150" />
    <path
       style="fill:#008000"
       d="m 76.857757,125.22718 c -1.353,-1.90011 -4.90534,-9.19103 -7.10507,-14.58263 -0.4454,-1.09168 -1.90755,-2.63255 -3.24921,-3.42416 -2.86515,-1.69047 -4.82944,-5.42425 -5.27386,-10.024671 -0.27752,-2.87283 -0.0494,-3.59141 1.79623,-5.65698 l 2.11415,-2.36614 5.6455,3.02817 c 3.10503,1.66549 6.358661,3.78447 7.230301,4.70884 0.97087,1.02962 3.09402,1.994 5.48082,2.48949 4.97951,1.033741 5.89364,2.056021 4.40784,4.929261 -0.61397,1.18728 -1.11631,2.79122 -1.11631,3.56432 0,2.15673 -0.76273,3.66532 -1.85317,3.66532 -0.93703,0 -2.91947,2.72259 -6.08078,8.35103 -1.17524,2.09242 -1.29456,2.92823 -0.6727,4.7121 1.02377,2.93678 0.50501,3.17429 -1.323741,0.60605 z"
       id="path3367"
       inkscape:connector-curvature="0" />
    <path
       style="fill:#008000"
       d="m 118.66315,109.32585 c -0.69374,-3.4687 -0.52842,-8.39986 0.38366,-11.444131 0.60862,-2.03138 0.62059,-3.19695 0.0449,-4.36859 -1.81893,-3.70179 -1.78107,-4.77471 0.19498,-5.52601 1.0341,-0.39316 5.38412,-0.71484 9.66673,-0.71484 l 7.78655,0 -1.46436,2.48191 c -0.8054,1.36505 -1.89023,4.09629 -2.41073,6.06943 -0.5205,1.97313 -1.77927,4.577361 -2.79726,5.787181 -1.018,1.20981 -1.8509,2.52609 -1.8509,2.92505 0,1.11197 -2.73803,4.34324 -4.87384,5.75183 -2.84974,1.87944 -4.16556,1.60899 -4.67973,-0.96183 z"
       id="path3369"
       inkscape:connector-curvature="0" />
    <path
       style="fill:#008000"
       d="m 111.25695,50.783969 c 0.68998,-0.40182 2.61855,-0.96176 4.28571,-1.2443 2.57229,-0.43595 3.06411,-0.7951 3.24856,-2.37219 0.11954,-1.02215 -0.28225,-2.35805 -0.89286,-2.96866 -0.61062,-0.61062 -1.11021,-1.75706 -1.11021,-2.54765 0,-0.79059 -0.28775,-1.61527 -0.63944,-1.83263 -1.07423,-0.66391 -1.57976,1.81035 -1.07393,5.25632 0.46234,3.14975 0.43073,3.22726 -0.86769,2.12742 -0.74113,-0.62778 -1.91001,-1.34091 -2.59751,-1.58472 -1.5753,-0.55866 -1.59137,-2.58094 -0.0463,-5.82104 1.28428,-2.69316 2.52806,-3.07145 5.55865,-1.69062 1.30919,0.59651 1.71139,1.206 1.41404,2.14285 -0.30811,0.97079 -0.0472,1.30925 1.00933,1.30925 1.5315,0 4.38569,-3.11142 4.38569,-4.78094 0,-2.09891 9.53735,6.20389 13.90186,12.10236 l 1.98198,2.67858 -14.90621,-0.0217 c -10.5099,-0.0153 -14.53621,-0.2372 -13.65169,-0.75231 z"
       id="path3371"
       inkscape:connector-curvature="0" />
    <path
       style="fill:#00ff00"
       d="m 49.709577,50.307999 c 6.3447,-8.31771 12.25736,-13.43723 20.09392,-17.39849 4.72294,-2.38737 6.30825,-2.66436 4.6691,-0.8158 -0.60962,0.6875 -1.26501,1.89286 -1.45642,2.67857 -0.315,1.29299 -0.35589,1.27604 -0.43089,-0.17857 -0.0942,-1.828 -0.9516,-2.07092 -2.16193,-0.61256 -0.45399,0.54702 -1.74845,1.37691 -2.87659,1.8442 -1.12814,0.46729 -2.21138,1.46228 -2.4072,2.2111 -0.19582,0.74882 -1.19071,1.67883 -2.21087,2.0667 -2.26426,0.86086 -2.43416,2.16913 -0.2817,2.16913 0.86523,0 2.63309,-1.02734 3.92857,-2.28297 l 2.35544,-2.28298 0,3.3544 c 0,3.06318 -0.14861,3.35441 -1.71172,3.35441 -2.01867,0 -6.43695,4.63859 -5.85724,6.14929 0.30839,0.80366 -0.85988,0.99357 -6.11235,0.99357 -6.07144,0 -6.43162,-0.0813 -5.54012,-1.25 z"
       id="path3373"
       inkscape:connector-curvature="0" />
    <path
       style="fill:#00ff00"
       d="m 77.272278,125.61175 c -0.990171,-1.31559 -5.294611,-9.85669 -6.881561,-13.65477 -0.9895,-2.36818 -1.81923,-3.33192 -4.8818,-5.67028 -2.23878,-1.70937 -4.26045,-6.636451 -4.26045,-10.383281 0,-1.19916 0.26164,-2.05792 0.93257,-3.0609 1.16655,-1.74389 2.67625,-3.36543 3.1333,-3.36543 0.19114,0 2.13677,0.99334 4.32363,2.20742 3.55377,1.97295 5.60984,3.29507 9.264261,5.95724 0.61682,0.44933 2.25996,1.14595 3.65143,1.54804 6.23531,1.801781 6.59198,2.158521 5.21847,5.219611 -0.42801,0.9539 -0.91762,2.7021 -1.08803,3.8849 -0.23252,1.61398 -0.50989,2.28468 -1.11169,2.68817 -1.70765,1.14495 -3.78561,3.65294 -5.42969,6.55335 -2.49375,4.39935 -2.63964,4.89485 -2.08196,7.07084 0.25801,1.0067 0.38741,1.91207 0.28755,2.01194 -0.0999,0.0999 -0.58408,-0.35323 -1.07603,-1.00685 z"
       id="path3375"
       inkscape:connector-curvature="0" />
    <path
       style="fill:#00ff00"
       d="m 113.57822,51.141779 c -2.13307,-0.20029 -2.25076,-0.25323 -1.39405,-0.62712 0.51464,-0.2246 1.95206,-0.60831 3.19426,-0.8527 2.87751,-0.56612 3.72536,-1.35308 3.4743,-3.22483 -0.10178,-0.75882 -0.5257,-1.81274 -0.94205,-2.34205 -0.41635,-0.5293 -0.85273,-1.56103 -0.96974,-2.29272 -0.27466,-1.71767 -0.65095,-2.30057 -1.3195,-2.04403 -0.76302,0.2928 -1.04689,2.5525 -0.66258,5.27432 0.18092,1.28136 0.2739,2.38993 0.20661,2.46348 -0.0673,0.0736 -0.83735,-0.32968 -1.71126,-0.89606 -0.87391,-0.56638 -1.87598,-1.20044 -2.22681,-1.40901 -1.23261,-0.7328 -0.11445,-5.56536 1.65907,-7.17037 1.49121,-1.34952 5.53046,0.21193 5.53046,2.1379 0,1.08769 0.66228,1.64228 1.65208,1.38344 1.06603,-0.27877 3.56769,-2.9846 3.79081,-4.10017 0.11125,-0.55625 0.30523,-1.01136 0.43107,-1.01136 0.62051,0 4.14983,2.74278 7.0553,5.48297 2.8004,2.6411 7.61128,8.21071 7.97874,9.23708 0.13121,0.36649 -21.82988,0.35901 -25.74671,-0.009 z"
       id="path3377"
       inkscape:connector-curvature="0" />
    <path
       style="fill:#00ff00"
       d="m 119.33041,110.82425 c -0.64827,-0.78111 -1.19272,-5.45612 -0.94164,-8.08551 0.12236,-1.28136 0.48056,-3.514211 0.796,-4.961891 l 0.57354,-2.63215 -0.97556,-2.48655 c -1.22001,-3.10959 -1.05289,-4.07252 0.80185,-4.62033 0.73771,-0.21789 4.87498,-0.49116 9.19394,-0.60728 l 7.85265,-0.21112 -1.10785,1.93633 c -0.60932,1.06498 -1.75102,3.76224 -2.5371,5.99391 -0.9396,2.66748 -2.0531,4.981021 -3.25018,6.752961 -1.00151,1.48244 -1.82092,2.913 -1.82092,3.179 0,0.26601 -0.91427,1.47117 -2.03171,2.67814 -2.86353,3.09295 -5.50444,4.32796 -6.55302,3.06449 z"
       id="path3379"
       inkscape:connector-curvature="0" />
    <path
       style="fill:#00ff00"
       d="m 73.524447,45.904999 c -0.83781,-0.50214 -1.52227,-1.02481 -1.52103,-1.16148 0.001,-0.13668 0.48512,-0.52326 1.07527,-0.85907 2.05935,-1.17183 0.94691,-3.31373 -1.40203,-2.69947 -0.36928,0.0966 -0.88666,0.0426 -1.14973,-0.12003 -0.37474,-0.23161 -0.2922,-0.49373 0.38122,-1.21055 1.41424,-1.50539 4.54764,-1.04609 6.370431,0.93377 0.83818,0.91041 1.24794,2.60176 0.63656,2.62748 -0.776541,0.0327 -1.254481,0.62947 -1.254481,1.56647 0,1.0053 -0.56476,1.84531 -1.23656,1.83925 -0.20699,-0.002 -1.06183,-0.41423 -1.89965,-0.91637 z"
       id="path3383"
       inkscape:connector-curvature="0" />
    <path
       style="fill:#00ff00"
       d="m 69.020167,50.140179 c 0.46526,-3.13075 2.03384,-3.78912 4.05626,-1.70251 0.66874,0.68996 1.52226,1.25448 1.89673,1.25448 0.77563,0 2.762761,1.08677 2.762761,1.51097 0,0.15463 -2.005981,0.28114 -4.457751,0.28114 l -4.45775,0 0.19975,-1.34408 z"
       id="path3385"
       inkscape:connector-curvature="0" />
    <path
       style="fill:none;fill-rule:evenodd;stroke:#000000;stroke-width:1px;stroke-linecap:butt;stroke-linejoin:miter;stroke-opacity:1"
       d="M 40.506937,87.184229 147.98775,86.801049"
       id="path3391"
       inkscape:connector-curvature="0" />
    <path
       style="fill:#0000ff;fill-rule:evenodd;stroke:#000000;stroke-width:1px;stroke-linecap:butt;stroke-linejoin:miter;stroke-opacity:1"
       d="m 48.745217,51.165699 90.429483,0.38318"
       id="path3393"
       inkscape:connector-curvature="0" />
    <path
       style="fill:#0000ff"
       d="m 81.549838,50.683179 -3.78359,-0.0562 -0.899931,-0.57071 c -0.61387,-0.38931 -1.14469,-0.57072 -1.67001,-0.57072 -0.69152,0 -0.87826,-0.11493 -1.83047,-1.12656 -1.51626,-1.61088 -2.13296,-1.85299 -3.24941,-1.27565 -0.59311,0.30671 -1.16376,1.47886 -1.16376,2.39042 0,1.18542 0.0734,1.16132 -3.53518,1.16132 -3.03738,0 -3.3299,-0.0302 -3.6426,-0.3757 -0.32989,-0.36452 -0.2993,-0.42675 1.02784,-2.09096 2.33014,-2.92195 3.24291,-3.5274 5.0385,-3.34208 0.70378,0.0726 1.10503,0.0349 1.19615,-0.11255 0.2363,-0.38235 0.55725,-5.05054 0.41283,-6.00456 -0.26881,-1.77564 -0.99202,-1.56801 -2.90958,0.8353 -1.87893,2.35489 -4.8683,3.50783 -4.8683,1.87761 0,-0.46579 0.56578,-0.74963 1.49427,-0.74963 1.06682,0 1.64097,-0.5354 2.23156,-2.08096 0.54977,-1.43872 1.04859,-2.0131 1.92601,-2.21773 0.8202,-0.19128 1.99101,-0.91067 3.28558,-2.01877 1.47269,-1.26056 1.63381,-1.24624 1.56158,0.13875 -0.0567,1.08766 -0.0647,1.10143 -0.63223,1.08559 -0.31612,-0.009 -0.72563,-0.0827 -0.91004,-0.16419 -0.48159,-0.2128 -0.44367,0.46973 0.0618,1.11233 0.28359,0.36053 0.57522,0.50481 1.02034,0.50481 1.04238,0 1.83958,-1.16489 1.83958,-2.68804 0,-3.43925 10.512201,-6.00597 23.272841,-5.68242 6.739502,0.17088 10.779382,0.85796 15.044732,2.55873 2.90578,1.15865 3.74651,1.59312 6.07148,3.13759 2.10092,1.39564 3.6987,2.09938 4.76644,2.09938 0.94458,0 1.00296,0.39326 0.2479,1.67012 -1.23747,2.09268 -3.16442,3.53952 -3.90047,2.92865 -0.23413,-0.19431 -0.23105,-0.32728 0.0222,-0.96021 0.22324,-0.55793 0.24346,-0.82903 0.0841,-1.12688 -0.46311,-0.86532 -3.76857,-2.3201 -5.27162,-2.3201 -1.00982,0 -1.48866,0.48451 -2.53797,2.56802 -1.7162,3.40772 -1.96599,4.90143 -1.03463,6.18714 0.53593,0.73982 2.11713,2.16535 2.40182,2.16535 0.0765,0 0.0816,-0.28019 0.0113,-0.62266 -0.12597,-0.6134 -0.11184,-0.60609 0.9504,0.49154 0.65002,0.67167 1.20724,1.08936 1.40296,1.05167 0.67732,-0.13044 0.84387,-3.36668 0.23472,-4.56072 -0.62761,-1.2302 -0.4248,-2.8901 0.44089,-3.60856 0.22793,-0.18917 0.2948,-0.10544 0.39369,0.49292 0.0655,0.39644 0.12009,1.00376 0.12125,1.34961 0.003,0.93941 0.47319,1.88701 1.08044,2.17818 0.75657,0.36276 1.02304,1.01435 1.02631,2.50957 0.004,1.75818 -0.22673,1.97235 -2.32225,2.15707 -1.94279,0.17126 -3.20711,0.4867 -4.98765,1.24439 -0.74187,0.31569 -1.4907,0.57378 -1.66407,0.57353 -0.18626,-1.9e-4 -0.534,-0.41918 -0.85,-1.02399 -0.97466,-1.86542 -3.24978,-3.79329 -3.81248,-3.23059 -0.2783,0.2783 0.0812,1.68143 0.80422,3.13862 l 0.55392,1.11642 -1.15681,0 -1.1568,0 0.496,-0.58947 c 0.52766,-0.62709 0.56251,-0.73858 0.37971,-1.21495 -0.16876,-0.43977 -1.14929,-0.37858 -1.62957,0.10169 -0.31053,0.31053 -0.38023,0.55581 -0.29942,1.05374 l 0.10531,0.64899 -8.753102,-0.0436 c -4.8142,-0.024 -10.45571,-0.0689 -12.53669,-0.0998 z m -5.147211,-4.1439 c 0.29527,-0.3143 0.46265,-0.79135 0.53975,-1.53832 0.11986,-1.16138 0.267371,-1.35888 1.014921,-1.35888 0.3893,0 0.49112,-0.10695 0.54388,-0.5713 0.16787,-1.47746 -0.95511,-2.95771 -2.915741,-3.84336 -1.99239,-0.9 -3.79968,-0.7838 -4.89842,0.31493 -1.13578,1.13579 -0.56721,2.36488 0.87395,1.88925 1.46403,-0.48317 2.83997,0.3427 2.3527,1.41214 -0.12454,0.27334 -0.58165,0.66165 -1.02322,0.86921 -1.35894,0.63877 -1.4334,0.87754 -0.53295,1.70883 1.63677,1.51105 3.25534,1.9582 4.04513,1.1175 z m 12.487771,-0.3175 c 0.24484,-0.13104 0.37344,-0.40732 0.37899,-0.81425 0.0201,-1.4727 1.08917,-3.23204 3.61972,-5.95695 2.70331,-2.91093 2.98236,-3.6385 1.73588,-4.52607 -0.67186,-0.47841 -0.71954,-0.68336 -0.19113,-0.82154 0.50478,-0.13201 0.48333,-0.37083 -0.0951,-1.05823 -0.89255,-1.06072 -3.34571,-1.6947 -7.28106,-1.88166 -2.69423,-0.12799 -4.59173,0.12585 -5.15558,0.6897 -0.61913,0.61913 -0.16715,0.89158 0.95694,0.57685 0.82303,-0.23043 0.92154,-0.22155 1.16001,0.10458 0.14334,0.19601 0.26061,0.58999 0.26061,0.8755 0,1.10858 -0.78422,5.02956 -1.19554,5.97753 -0.27185,0.62654 -0.42736,1.3543 -0.4179,1.95579 0.0307,1.9557 1.47423,4.053 3.08739,4.48576 2.26936,0.6088 2.64547,0.65592 3.13675,0.39299 z m 8.32148,-3.51235 c 1.05307,-0.49463 1.73498,-1.13491 1.54172,-1.44761 -0.20184,-0.32659 -2.22108,-0.83508 -3.40202,-0.8567 -0.80764,-0.0148 -1.18234,0.0681 -1.4317,0.31688 -0.3226,0.3218 -0.32158,0.36693 0.0227,1.00627 0.39608,0.73548 1.32952,1.42762 1.92817,1.42974 0.21074,7.5e-4 0.81424,-0.20112 1.34111,-0.44858 z m -20.159161,-7.42733 c 0.655581,-0.33037 1.655761,-0.89684 2.222621,-1.25882 1.29855,-0.82922 1.11422,-1.11585 -0.70507,-1.09639 -1.924541,0.0206 -3.196741,0.85958 -3.423651,2.25785 -0.10101,0.62245 -0.0685,0.69803 0.30043,0.69803 0.22754,0 0.95009,-0.2703 1.60567,-0.60067 z m 29.914473,-1.62309 c 0.71607,-0.27478 0.0824,-1.9896 -0.88298,-2.38947 -0.62199,-0.25763 -1.58024,0.0333 -1.77416,0.53863 -0.17747,0.46249 0.42026,1.19695 1.29874,1.59581 0.90056,0.40888 0.93878,0.41606 1.3584,0.25503 z"
       id="path3395"
       inkscape:connector-curvature="0" />
    <path
       style="fill:#0000ff"
       d="m 85.620808,132.62239 c -4.02532,-0.3536 -7.079,-1.19943 -11.691471,-3.2384 -6.624,-2.92818 -12.05498,-6.69112 -17.05139,-11.81434 -4.25786,-4.36592 -7.09644,-8.45519 -10.08622,-14.53027 -2.94753,-5.989231 -3.76782,-8.640731 -4.01533,-12.979221 l -0.1281,-2.24524 8.41039,-0.0538 8.41038,-0.0538 0.9626,0.62108 c 0.71046,0.4584 1.27659,0.6539 2.16131,0.74637 0.65929,0.0689 1.25001,0.2083 1.31271,0.30976 0.0627,0.10145 -0.40869,0.69436 -1.04755,1.31757 -1.69757,1.656 -2.03351,2.61523 -2.03768,5.81827 -0.004,2.89874 0.25786,4.045131 1.53032,6.705571 1.07351,2.2445 2.39544,3.72916 4.00393,4.49682 2.07347,0.98957 2.52119,1.60234 3.8536,5.27417 0.86641,2.38762 4.10859,9.08398 5.64831,11.66594 1.531621,2.56839 2.231531,3.37853 2.962821,3.42946 0.82277,0.0573 0.82389,-0.49911 0.006,-2.91932 -0.90468,-2.67669 -0.89115,-3.12789 0.12178,-4.06303 0.43903,-0.40531 0.8701,-0.73692 0.95794,-0.73692 0.0878,0 0.15971,-0.17243 0.15971,-0.38318 0,-0.21074 -0.0862,-0.38317 -0.19159,-0.38317 -0.43405,0 -0.12492,-0.68624 1.03991,-2.30845 0.67732,-0.94328 1.48896,-2.25998 1.80365,-2.92602 0.6445,-1.36408 1.71618,-2.42905 2.44437,-2.42905 1.23899,0 1.72902,-0.8131 1.98668,-3.29644 0.19806,-1.90882 0.62275,-3.36103 1.42201,-4.86242 0.30932,-0.58109 0.4996,-1.24388 0.4996,-1.74034 0,-0.68859 -0.0981,-0.88264 -0.69435,-1.37416 -0.8395,-0.691991 -2.45057,-1.222451 -5.59214,-1.841281 -2.6096,-0.51403 -4.30045,-1.27677 -4.40701,-1.98797 -0.1621,-1.08202 -2.622461,-2.63111 -10.814941,-6.80933 l -4.74449,-2.41972 24.765431,-5.9e-4 c 13.620982,-3.2e-4 26.274182,-0.0509 28.118212,-0.11247 3.17271,-0.10589 3.32192,-0.0951 2.77803,0.20044 -0.83362,0.45301 -1.05374,0.83422 -1.05374,1.82487 0,1.34448 0.52189,3.05933 1.2552,4.12443 0.36878,0.53562 0.66068,1.19746 0.66068,1.49796 0,0.2961 -0.29645,1.43369 -0.65877,2.52797 -1.16676,3.523811 -1.32194,6.427101 -0.58857,11.012061 0.55967,3.49906 0.96596,3.98002 2.85821,3.38354 2.89172,-0.91154 6.98927,-4.64472 7.60409,-6.92792 0.38804,-1.44101 0.89619,-2.29959 2.21113,-3.73596 1.58585,-1.732301 2.27191,-3.155661 2.53951,-5.268671 0.3101,-2.44854 1.16647,-4.57767 2.95037,-7.33531 l 0.89398,-1.38194 4.41038,0 4.41039,0 0,1.39404 c 0,4.4161 -0.86612,7.50814 -3.82937,13.670871 -3.16015,6.57224 -6.33889,11.20119 -10.65771,15.52001 -4.08842,4.08842 -8.46228,7.13508 -14.53849,10.12692 -6.08289,2.99514 -8.57452,3.85216 -12.549,4.31635 -2.35831,0.27544 -16.165162,0.4036 -18.775622,0.17429 z m 49.109042,-26.20057 c 0.38522,-0.40208 0.58944,-0.91655 0.79937,-2.01377 0.31133,-1.62714 0.70737,-2.52043 1.62834,-3.67278 0.80906,-1.012321 1.14992,-1.692781 1.14992,-2.295551 0,-0.63197 -0.39101,-0.77892 -1.09873,-0.41294 -1.52619,0.78922 -4.36534,5.120721 -4.75087,7.248081 -0.10865,0.59952 -0.0534,0.78275 0.36131,1.19743 0.63681,0.6368 1.26819,0.62013 1.91066,-0.0505 z"
       id="path3397"
       inkscape:connector-curvature="0" />
    <path
       style="fill:#f9f9f9"
       d="m 86.636218,45.861279 c -1.70499,-0.41905 -2.56459,-1.05376 -3.19794,-2.3613 -0.7642,-1.57769 -0.81681,-2.38742 -0.24774,-3.8131 0.59172,-1.4824 1.10943,-4.15028 1.15282,-5.9407 0.0421,-1.73707 -0.17198,-1.89113 -1.93164,-1.39005 -0.69387,0.19758 -0.53114,-0.408 0.19158,-0.71294 0.82365,-0.34754 5.8572,-0.34427 7.80721,0.005 2.04029,0.3655 3.36885,0.90218 3.82734,1.54607 0.46046,0.64667 0.47864,0.77256 0.11152,0.77256 -0.58428,0 -0.5202,0.45493 0.15362,1.09064 0.38347,0.36178 0.69722,0.74201 0.69722,0.84494 0,0.51869 -0.92824,1.80932 -2.62282,3.64678 -2.22382,2.41134 -3.21384,3.97915 -3.4003,5.38479 -0.19006,1.43272 -0.30843,1.47592 -2.54087,0.92724 z"
       id="path3399"
       inkscape:connector-curvature="0" />
    <path
       style="fill:#00ff00"
       d="m 75.275777,35.376679 c 0.003,-1.42257 2.222771,-2.6402 4.153201,-2.27805 0.69179,0.12978 0.70843,0.14979 0.34598,0.41603 -0.69669,0.51176 -3.441161,1.95234 -3.974401,2.08617 -0.43186,0.10839 -0.52536,0.0685 -0.52478,-0.22415 z"
       id="path3401"
       inkscape:connector-curvature="0" />
    <path
       style="fill:#00ff00"
       d="m 66.984827,85.397719 c -1.45237,-0.49826 -2.86398,-1.0899 -3.13693,-1.31477 -0.77025,-0.63458 -0.54476,-27.78837 0.2386,-28.73227 0.8905,-1.07298 1.64328,-0.90167 7.50108,1.70693 7.610621,3.38918 10.713201,5.91742 13.242231,10.79089 1.45364,2.80117 1.46758,7.66605 0.0311,10.87677 -2.8718,6.4191 -10.411401,9.23333 -17.876131,6.67245 z m 9.11861,-3.04496 c 3.200841,-0.88896 5.714031,-4.01126 6.330171,-7.86438 0.79032,-4.94242 -2.7209,-9.43835 -10.129271,-12.97001 -2.3996,-1.14392 -4.54109,-2.11859 -4.75887,-2.16593 -0.22343,-0.0486 -0.45928,4.77394 -0.54127,11.06772 l -0.14531,11.15381 1.3833,0.60191 c 1.65359,0.71951 5.58861,0.80805 7.86125,0.17688 z"
       id="path3407"
       inkscape:connector-curvature="0" />
    <path
       style="fill:#00ff00"
       d="m 107.91505,85.397719 c -1.45237,-0.49826 -2.87422,-1.0984 -3.15968,-1.33365 -0.37803,-0.31155 -0.51904,-4.09606 -0.51911,-13.93305 -1.1e-4,-14.23994 0.1639,-15.48582 2.03855,-15.48582 1.09091,0 10.55656,4.28894 12.64298,5.72861 2.82368,1.94838 5.45135,4.8641 6.71947,7.45604 2.46924,5.04694 1.16896,11.34964 -3.1658,15.34528 -3.4028,3.13659 -9.27751,4.03359 -14.55641,2.22259 z m 9.11861,-3.04496 c 3.71102,-1.03065 6.19905,-4.62611 6.22992,-9.00289 0.0343,-4.86411 -2.55015,-7.99911 -9.45197,-11.46541 -2.21222,-1.11105 -4.4699,-2.19029 -5.01706,-2.39832 l -0.99486,-0.37825 -0.0152,11.22889 -0.0152,11.22888 1.39318,0.60606 c 1.66234,0.72315 5.5936,0.81357 7.87114,0.18104 z"
       id="path3409"
       inkscape:connector-curvature="0" />
    <path
       style="fill:#00ff00"
       d="m 172.46803,81.269009 -1.31098,-1.10312 -2.13364,0.92184 c -1.59707,0.69002 -2.77152,0.87725 -4.67018,0.74452 -4.06691,-0.28429 -6.1873,-2.35055 -6.96866,-6.79073 -0.90312,-5.13211 0.92172,-9.68438 4.95099,-12.35083 1.48928,-0.98556 2.4209,-1.23859 4.95462,-1.3457 2.62394,-0.11093 3.4006,0.0318 4.88091,0.89683 1.4803,0.86504 1.74582,1.23541 1.66858,2.32746 -0.7131,10.08193 -0.73569,9.4796 0.49214,13.12056 0.89957,2.66758 1.05056,3.59972 0.65941,4.07102 -0.69729,0.84018 -1.01339,0.77856 -2.52319,-0.49185 z m -3.37771,-3.29413 1.32033,-0.87056 0,-6.17123 c 0,-5.78034 -0.0557,-6.18977 -0.88022,-6.46373 -3.09999,-1.03008 -6.79269,1.09554 -8.34108,4.80137 -1.15966,2.77545 -0.62385,6.99718 1.10785,8.72887 1.18352,1.18353 4.98161,1.16971 6.79312,-0.0247 z"
       id="path3411"
       inkscape:connector-curvature="0" />
    <path
       style="fill:#00ff00"
       d="m 184.82365,81.821989 c -0.24116,-0.30258 -0.5375,-4.17257 -0.65854,-8.59998 -0.12104,-4.42741 -0.3443,-8.17407 -0.49615,-8.32592 -0.15185,-0.15184 -1.37157,-0.36693 -2.7105,-0.47796 -2.77488,-0.23012 -3.69614,-1.14245 -2.8154,-2.78813 0.44896,-0.83889 0.77183,-0.91267 3.07852,-0.70351 l 2.57696,0.23367 0.12776,-3.3675 c 0.12343,-3.2534 0.1646,-3.36751 1.21504,-3.36751 1.42149,0 2.19867,1.5498 2.20699,4.4011 l 0.006,2.20054 2.9173,0 c 2.2978,0 3.02165,0.16356 3.40867,0.7702 0.8205,1.28612 -0.17924,2.2929 -2.40968,2.42664 -1.06462,0.0638 -2.39533,0.21967 -2.95714,0.3463 l -1.02146,0.23024 0.31339,7.66815 c 0.27599,6.75322 0.226,7.80153 -0.41904,8.78598 -0.79813,1.2181 -1.67658,1.42912 -2.36315,0.56769 z"
       id="path3413"
       inkscape:connector-curvature="0" />
    <path
       style="fill:#00ff00"
       d="m 211.78982,81.241499 -1.21997,-1.13063 -2.22604,0.95762 c -2.7714,1.19222 -6.70962,1.05836 -8.56174,-0.29103 -2.06579,-1.50506 -3.18488,-4.30731 -3.18488,-7.97509 0,-5.0274 1.79141,-8.27378 5.75647,-10.43184 1.96763,-1.07092 2.60709,-1.19806 5.26916,-1.04764 2.18559,0.1235 3.37089,0.4259 4.25412,1.08535 l 1.22437,0.91415 -0.15466,6.0144 c -0.13796,5.36533 -0.0469,6.31951 0.84338,8.84146 0.82573,2.33899 0.90012,2.94503 0.43085,3.51046 -0.76127,0.91728 -1.00765,0.87195 -2.43106,-0.44721 z m -3.52972,-3.19765 1.32033,-0.80277 0,-6.23062 0,-6.23063 -1.10027,-0.36898 c -3.34676,-1.12233 -7.15779,1.70515 -8.3953,6.22866 -0.59272,2.16658 0.1404,5.82013 1.44693,7.21087 1.21021,1.28821 4.75989,1.39028 6.72831,0.19347 z"
       id="path3415"
       inkscape:connector-curvature="0" />
  </g>
</svg>
